<svg width="281" height="403" viewBox="0 0 281 403" fill="none" xmlns="http://www.w3.org/2000/svg">
<rect width="280" height="400" fill="white"/>
<path d="M280 402.44V358.697C280 358.697 147.953 316.667 0 362.144L0.0811462 402.44C108 402.44 184 402.44 280 402.44Z" fill="#EBF2E1"/>
<g clip-path="url(#clip0_22_660)" id="water1">
<path d="M63.0882 133.698C63.0882 146.307 53.629 150 46.5441 150C39.4592 150 30 146.307 30 133.698C30 121.089 46.5441 103.003 46.5441 100C46.5441 103.003 63.0882 121.503 63.0882 133.698Z" fill="#3AB6DC"/>
</g>
<g clip-path="url(#clip0_22_660)" id="water2">
<path d="M63.0882 133.698C63.0882 146.307 53.629 150 46.5441 150C39.4592 150 30 146.307 30 133.698C30 121.089 46.5441 103.003 46.5441 100C46.5441 103.003 63.0882 121.503 63.0882 133.698Z" fill="#3AB6DC"/>
</g>
<g clip-path="url(#clip0_22_660)" id="water3">
<path d="M63.0882 133.698C63.0882 146.307 53.629 150 46.5441 150C39.4592 150 30 146.307 30 133.698C30 121.089 46.5441 103.003 46.5441 100C46.5441 103.003 63.0882 121.503 63.0882 133.698Z" fill="#3AB6DC"/>
</g>
<g clip-path="url(#clip1_22_660)">
<path d="M188.588 43.7341V33.7703C188.588 31.5744 186.809 29.7903 184.612 29.7903H149.957C147.761 29.7903 145.981 31.5744 145.981 33.7703V43.7341H188.581H188.588Z" fill="#357069"/>
<path d="M188.588 54.4255V64.3894C188.588 66.5921 186.809 68.3763 184.612 68.3763H149.957C147.761 68.3763 145.981 66.5921 145.981 64.3894V54.4255H188.581H188.588Z" fill="#357069"/>
<path d="M173.717 32.8922V14.7624C173.717 13.8498 172.978 13.1086 172.068 13.1086H162.515C161.605 13.1086 160.866 13.8498 160.866 14.7624V32.8922H173.724H173.717Z" fill="#357069"/>
<path d="M130.488 21.7479H204.088V18.255V14.7622H130.488V21.7479Z" fill="#357069"/>
<g style="mix-blend-mode:multiply">
<path d="M186.275 15.1877C186.275 15.0504 186.281 14.9063 186.302 14.7554H187.452C187.431 14.9063 187.424 15.0504 187.424 15.1877V21.3156C187.424 21.4528 187.438 21.5969 187.452 21.7479H186.302C186.281 21.5969 186.275 21.4528 186.275 21.3156V15.1877Z" fill="#EBEBEB"/>
</g>
<g style="mix-blend-mode:multiply">
<path d="M148.308 15.1877C148.308 15.0504 148.301 14.9063 148.281 14.7554H147.131C147.152 14.9063 147.158 15.0504 147.158 15.1877V21.3156C147.158 21.4528 147.152 21.5969 147.131 21.7479H148.281C148.301 21.5969 148.308 21.4528 148.308 21.3156V15.1877Z" fill="#EBEBEB"/>
</g>
<path d="M188.779 11.9008C188.033 12.6488 187.418 14.131 187.418 15.1946V21.3225C187.418 22.3793 188.027 23.8684 188.779 24.6163L189.313 25.1516C190.059 25.8996 191.537 26.5103 192.598 26.5103H202.172C203.232 26.5103 204.095 25.6457 204.095 24.582V11.9283C204.095 10.8715 203.226 10 202.172 10H192.598C191.544 10 190.066 10.6107 189.313 11.3656L188.779 11.9008Z" fill="#357069"/>
<path d="M145.796 11.9008C146.542 12.6488 147.158 14.131 147.158 15.1946V21.3225C147.158 22.3793 146.549 23.8684 145.796 24.6163L145.263 25.1516C144.517 25.8996 143.039 26.5103 141.978 26.5103H132.411C131.35 26.5103 130.488 25.6457 130.488 24.582V11.9283C130.488 10.8715 131.35 10 132.411 10H141.978C143.032 10 144.517 10.6107 145.263 11.3656L145.796 11.9008Z" fill="#357069"/>
<path d="M281 36.7693H79.129C66.6195 36.7693 55.1843 41.8884 47.0065 50.1161C38.8014 58.3232 33.6963 69.7899 33.6963 82.3339V109.94H58.4759V82.3339C58.4759 76.5765 60.7684 71.478 64.5254 67.6901C68.3029 63.9227 73.3875 61.6308 79.129 61.6239H281V36.7762V36.7693Z" fill="#357069"/>
<g opacity="0.6">
<path d="M54.8216 74.2295C56.0602 70.4897 58.1543 67.0655 61.0011 64.1902C63.1294 62.063 65.5519 60.368 68.1661 59.1191C68.9873 58.728 69.3431 57.7398 68.9462 56.9095C68.5561 56.0861 67.5707 55.7292 66.7427 56.1272C63.7864 57.534 61.0559 59.4554 58.6607 61.8434C55.4444 65.0823 53.0766 68.9594 51.6805 73.1865C51.3931 74.058 51.8585 74.9912 52.7276 75.2794C52.8986 75.3343 53.0766 75.3618 53.2477 75.3618C53.9388 75.3618 54.5889 74.9226 54.8148 74.2295H54.8216Z" fill="white"/>
</g>
<path d="M31.0002 119.177C31.0002 120.391 31.9925 121.386 33.2037 121.386H58.9757C60.1869 121.386 61.1792 120.391 61.1792 119.177V106.2C61.1792 104.986 60.1869 103.991 58.9757 103.991H33.2037C31.9925 103.991 31.0002 104.986 31.0002 106.2V119.177Z" fill="#357069"/>
<path d="M272.925 65.6451H281V32.748H272.925C271.406 32.748 270.174 33.9832 270.174 35.5066V62.8797C270.174 64.4031 271.406 65.6382 272.925 65.6382V65.6451Z" fill="#357069"/>
</g>
<defs>
<clipPath id="clip0_22_660">
<rect width="33.0882" height="50" fill="white" transform="translate(30 100)"/>
</clipPath>
<clipPath id="clip1_22_660">
<rect width="250" height="111.386" fill="white" transform="matrix(-1 0 0 1 281 10)"/>
</clipPath>
</defs>

<style>
#water1,
#water3,
#water2 {
	animation: drop 6s ease infinite;
	position: relative;
	transform-origin: 15%;
	opacity: 0.7;
	transform: scale(0.8, 0.65) translateY(-20%);
    transitiom: opacity 2s ease;
}

#water2 {
    animation-delay: 2s;
}

#water3 {
    animation-delay: 4s;
}


@keyframes drop {
	30% {
	    opacity: 1;
	}
	
    100% {
	    opacity: 0;
		transform: scale(1, 1.3) translateY(100%);
	}
}
</style>
</svg>
