<svg width="280" height="403" viewBox="0 0 280 403" fill="none" xmlns="http://www.w3.org/2000/svg">
<rect width="280" height="400" fill="#EBF2E1"/>
<path d="M233.784 14.9311C249.018 14.2546 253.251 21.0263 253.251 21.0263C253.251 21.0263 260.023 1.39143 279.32 0.711426V27.2887H215.84C215.84 27.2887 217.702 15.6467 233.784 14.9311Z" fill="white"/>
<path d="M279.968 215H0.188721V378.637H279.968V215Z" fill="#EBF2E1"/>
<path d="M279.69 339.759L279.698 338.63C279.698 338.63 183.161 247.146 0.0998535 249.107V381.353L279.69 339.759Z" fill="#BAD1A3"/>
<path d="M0.00713084 401.996L0 400.648C0 400.648 123.981 288 280 288V402H0.00713084V401.996Z" fill="#AAC48F"/>
<path d="M168.934 363.602H160.482L162.38 301.731C162.408 300.752 163.32 299.973 164.427 299.973C165.531 299.973 166.435 300.742 166.474 301.714L168.934 363.598V363.602Z" fill="white"/>
<path d="M166.618 296.262C167.863 295.016 167.863 292.996 166.618 291.75C165.372 290.505 163.352 290.505 162.106 291.75C160.86 292.996 160.86 295.016 162.106 296.262C163.352 297.508 165.372 297.508 166.618 296.262Z" fill="#00ADD8"/>
<path d="M175.489 299.157C180.373 301.984 184.849 305.669 188.452 309.867L188.932 310.429C189.085 310.611 189.124 310.814 189.025 310.935C188.911 311.091 188.729 311.341 188.615 311.497C188.53 311.629 188.323 311.654 188.106 311.561L187.426 311.273C182.253 309.073 177.312 305.854 173.096 301.97L168.596 297.723C168.268 297.413 168.226 296.907 168.5 296.548C168.753 296.213 169.208 296.106 169.586 296.291L175.489 299.161V299.157Z" fill="white"/>
<path d="M152.885 299.51C148 302.337 143.525 306.021 139.922 310.219L139.441 310.781C139.288 310.963 139.249 311.166 139.349 311.287C139.463 311.444 139.644 311.693 139.758 311.85C139.843 311.981 140.05 312.006 140.267 311.914L140.947 311.625C146.12 309.425 151.062 306.207 155.277 302.322L159.777 298.075C160.105 297.765 160.148 297.26 159.873 296.9C159.621 296.565 159.165 296.459 158.788 296.644L152.885 299.513V299.51Z" fill="white"/>
<path d="M162.334 281.623C161.817 276.001 162.245 270.22 163.59 264.854L163.772 264.135C163.829 263.904 163.975 263.758 164.132 263.768C164.327 263.768 164.634 263.775 164.826 263.779C164.983 263.772 165.121 263.925 165.175 264.156L165.331 264.879C166.524 270.373 166.748 276.265 166.011 281.951L165.139 288.078C165.075 288.523 164.687 288.85 164.235 288.833C163.815 288.818 163.466 288.509 163.398 288.096L162.33 281.62L162.334 281.623Z" fill="white"/>
<path d="M203.7 323.613H213.267L208.485 314.046L203.7 323.613Z" fill="#357069"/>
<path d="M201.237 332.866H215.638L208.439 318.465L201.237 332.866Z" fill="#357069"/>
<path d="M199.367 342.952H216.097L216.118 340.171L208.439 324.812L199.367 342.952Z" fill="#357069"/>
<path d="M222.744 316.759H232.307L227.526 307.193L222.744 316.759Z" fill="#357069"/>
<path d="M220.277 326.009H234.678L227.479 311.608L220.277 326.009Z" fill="#357069"/>
<path d="M218.408 336.098H235.137L235.159 333.318L227.479 317.959L218.408 336.098Z" fill="#357069"/>
<path d="M160 370C160 370 195.99 325.857 280 321V370C280 370 218.231 358.965 160 370Z" fill="#97B876"/>
<path d="M2.96579 253.066C2.62757 251.713 7.35915 238.195 7.35915 238.195L13.1054 251.375L2.96579 253.066Z" fill="#BAD1A3"/>
<path d="M14.5759 253.828C14.3231 252.813 17.8762 242.656 17.8762 242.656L22.1913 252.557L14.5759 253.828Z" fill="#BAD1A3"/>
<path d="M57.5802 372.969H35.3535L39.6579 243.19H54.1766L57.5802 372.969Z" fill="white"/>
<path d="M38.1021 290.079H55.4049L54.6893 262.764H39.0099L38.1021 290.079Z" fill="#86AD58"/>
<path d="M55.387 242.414H38.8853V246.11H55.387V242.414Z" fill="#00ADD8"/>
<g style="mix-blend-mode:multiply" opacity="0.34">
<path d="M55.4047 290.079L55.3157 286.639L54.2512 246.106H55.387L55.4012 242.41H48.5299C50.488 301.856 47.088 344.675 39.0098 372.965H57.5765L55.4012 290.079H55.4047Z" fill="#86AD58"/>
</g>
<path d="M90.242 268.82L98.3416 268.71C98.395 268.71 98.4342 268.763 98.4164 268.813L94.5998 279.323C94.582 279.373 94.6212 279.426 94.6746 279.426L101.923 279.259C101.991 279.259 102.026 279.337 101.984 279.387L89.1668 294.187C89.1134 294.248 89.0173 294.198 89.0315 294.123L91.2389 283.161C91.2496 283.115 91.2104 283.068 91.1641 283.068L85.8914 283.093C85.838 283.093 85.8024 283.044 85.8166 282.994L90.1673 268.874C90.1779 268.842 90.2064 268.82 90.2385 268.82H90.242Z" fill="white"/>
<path d="M251.461 359.817C244.647 359.817 239.075 354.242 239.075 347.431V327.782C239.075 320.968 244.65 315.396 251.461 315.396C258.275 315.396 263.847 320.971 263.847 327.782V347.431C263.847 354.245 258.272 359.817 251.461 359.817Z" fill="#6A854E"/>
<path d="M252 373L252 347" stroke="#357069" stroke-width="1.76" stroke-linecap="round" stroke-linejoin="round"/>
<path d="M109.966 307.428H72.8501V319.942H109.966V307.428Z" fill="#84A85E"/>
<path d="M131.744 311.49H107.513V324.004H131.744V311.49Z" fill="#80A35B"/>
<path d="M92.2855 307.428H65.7153V319.942H92.2855V307.428Z" fill="#A0BD81"/>
<path d="M107.324 311.49H89.9785V324.004H107.324V311.49Z" fill="#A0BD81"/>
<path d="M138.501 315.99H69.4465V373.079H138.501V315.99Z" fill="#647D49"/>
<path d="M195.925 334.052H122.587V373.136H195.925V334.052Z" fill="#8CA671"/>
<path d="M195.925 334.052H177.7V373.136H195.925V334.052Z" fill="#6E8A51"/>
<path d="M107.214 315.99H49.9043V373.079H107.214V315.99Z" fill="#C7DBAF"/>
<path d="M206.463 363.014H181.246V373.225H206.463V363.014Z" fill="#DDEBCF"/>
<path d="M193.856 352.202L181.246 363.014H206.463L193.856 352.202Z" fill="#DDEBCF"/>
<path d="M193.856 352.202H223.791L237.604 363.014H206.463L193.856 352.202Z" fill="#357069"/>
<path d="M237.604 363.014H206.463V373.225H237.604V363.014Z" fill="#C8D4BB"/>
<path d="M100.848 320.601H90.9114V369.565H100.848V320.601Z" fill="#A0BD81"/>
<path d="M83.5771 320.601H73.6404V369.565H83.5771V320.601Z" fill="#A0BD81"/>
<path d="M66.6481 320.601H56.7114V369.565H66.6481V320.601Z" fill="#A0BD81"/>
<path d="M169.354 373.079H145.422L147.167 341.022H167.033L169.354 373.079Z" fill="#DDEBCF"/>
<path d="M169.354 373.079H147.398C156.509 372.05 162.771 363.167 164.231 341.019H167.094L169.354 373.079Z" fill="#B7C9A1"/>
<path d="M146.547 352.138C147.124 352.252 148.295 352.472 148.904 352.472C154.031 352.472 158.186 348.317 158.186 343.191C158.186 342.443 158.086 341.72 157.922 341.022H147.124L146.551 352.138H146.547Z" fill="white"/>
<path d="M140.221 373.079H116.289L118.033 341.022H137.9L140.221 373.079Z" fill="#DDEBCF"/>
<path d="M140.221 373.079H118.265C127.375 372.05 133.638 363.167 135.098 341.019H137.96L140.221 373.079Z" fill="#B7C9A1"/>
<path d="M117.414 352.138C117.991 352.252 119.162 352.472 119.771 352.472C124.897 352.472 129.052 348.317 129.052 343.191C129.052 342.443 128.953 341.72 128.789 341.022H117.991L117.417 352.138H117.414Z" fill="white"/>
<path d="M68.0721 402.002C68.0721 402.002 59.6343 379.497 30.3797 376.685C23.0064 361.65 12.6069 354.333 0 353.5V402.002H68.0757H68.0721Z" fill="#357069"/>
<path d="M233.784 131.219C249.018 130.543 253.251 137.315 253.251 137.315C253.251 137.315 260.023 117.68 279.32 117V143.577H215.84C215.84 143.577 217.702 131.935 233.784 131.219Z" fill="white"/>
<path d="M43.9025 138.287C33.4531 137.824 30.5515 142.466 30.5515 142.466C30.5515 142.466 30.5053 142.331 30.4091 142.089C26.1724 131.458 11.6537 130.098 5.40188 139.686L1.89502 146.76H56.2103C56.2103 146.76 54.9322 138.774 43.9025 138.283V138.287Z" fill="white"/>
</svg>
