<svg width="279" height="407" viewBox="0 0 279 407" fill="none" xmlns="http://www.w3.org/2000/svg">
<path d="M189.503 189.535C208.412 215.499 217.784 248.477 213.288 282.836C211.587 295.853 208.009 308.164 202.866 319.539" stroke="#C1CFB2" stroke-width="3.99" stroke-linecap="round" stroke-linejoin="round"/>
<path d="M196.517 314.433L193.989 335.742L209.983 321.687L196.517 314.433Z" fill="#C1CFB2"/>
<path d="M27.1915 335.743C8.28305 309.779 -1.08963 276.801 3.40643 242.441C5.10808 229.424 8.68535 217.114 13.8284 205.739" stroke="#C1CFB2" stroke-width="3.99" stroke-linecap="round" stroke-linejoin="round"/>
<path d="M20.1783 210.844L22.7063 189.535L6.71191 203.591L20.1783 210.844Z" fill="#C1CFB2"/>
<g clip-path="url(#clip0_8_52)">
<path d="M110.45 185.641C110.45 185.641 117.06 88.8659 85.561 40.5571" stroke="#C1CFB2" stroke-width="4.74" stroke-linecap="round" stroke-linejoin="round"/>
<path d="M102.347 16.0338C99.9586 25.5016 84.1097 34.9445 84.1097 34.9445C84.1097 34.9445 74.6385 19.1096 77.0271 9.64186C79.4156 0.1824 85.7684 -1.08605 92.7599 0.671539C99.7513 2.42912 104.736 6.56608 102.347 16.0338Z" fill="#D1DEC3"/>
<path d="M84.541 66.7469C79.9796 58.1164 85.4284 40.4908 85.4284 40.4908C85.4284 40.4908 103.069 45.9211 107.63 54.5515C112.192 63.1819 108.327 68.3718 101.949 71.746C95.5714 75.112 89.1024 75.3773 84.541 66.7469Z" fill="#D1DEC3"/>
<path d="M111.387 47.1895C101.742 48.7067 86.83 37.8379 86.83 37.8379C86.83 37.8379 97.6862 22.915 107.332 21.4061C116.977 19.8889 120.643 25.228 121.762 32.3496C122.882 39.4711 121.041 45.6724 111.387 47.1895Z" fill="#D1DEC3"/>
<path d="M66.5192 15.0557C75.725 18.3138 83.6702 34.9611 83.6702 34.9611C83.6702 34.9611 67.0168 42.92 57.811 39.6619C48.6052 36.4037 47.9251 29.9703 50.3303 23.1721C52.7354 16.3738 57.3134 11.7975 66.5192 15.0557Z" fill="#D1DEC3"/>
<path d="M57.5539 47.3553C64.0394 40.0597 82.4676 38.9902 82.4676 38.9902C82.4676 38.9902 83.5541 57.4034 77.0685 64.6991C70.583 71.9947 64.3629 70.1957 58.9721 65.4038C53.5813 60.6119 51.0684 54.651 57.5539 47.3553Z" fill="#D1DEC3"/>
<path d="M66.1294 41.4774L76.828 38.9156" stroke="#939E88" stroke-width="1.47" stroke-linecap="round" stroke-linejoin="round"/>
<path d="M81.3231 30.7744L78.6028 24.7804" stroke="#939E88" stroke-width="1.47" stroke-linecap="round" stroke-linejoin="round"/>
<path d="M94.6756 28.196L89.8322 32.648" stroke="#939E88" stroke-width="1.47" stroke-linecap="round" stroke-linejoin="round"/>
<path d="M91.2338 42.1738L96.948 45.4486" stroke="#939E88" stroke-width="1.47" stroke-linecap="round" stroke-linejoin="round"/>
<path d="M83.6951 46.576L83.1394 53.1338" stroke="#939E88" stroke-width="1.47" stroke-linecap="round" stroke-linejoin="round"/>
<path d="M92.4613 38.6337C92.2788 42.9531 88.6297 46.3024 84.3171 46.1201C79.9962 45.9377 76.6456 42.2898 76.828 37.9788C77.0105 33.6594 80.6596 30.3101 84.9723 30.4925C89.2849 30.6749 92.6437 34.3227 92.4613 38.6337Z" fill="#6C8C47"/>
<path d="M72.9963 140.466C72.9963 140.466 45.1716 110.463 85.4532 81.7527C85.4532 81.7527 103.575 112.718 72.9963 140.466Z" fill="#90BA5E"/>
<path d="M73.3364 141.287C73.3364 141.287 43.2144 159.443 14.7428 129.216C14.7428 129.216 59.0052 106.201 73.3364 141.287Z" fill="#90BA5E"/>
<path d="M98.1921 200.796C98.1921 200.796 89.4259 167.916 59.196 118.04" stroke="#86AD58" stroke-width="4.7" stroke-linecap="round" stroke-linejoin="round"/>
<path d="M72.3329 129.241L83.9936 86.4949" stroke="#7A9E50" stroke-width="2.18" stroke-linecap="round" stroke-linejoin="round"/>
<path d="M20.6975 130.211L64.3545 137.838" stroke="#7A9E50" stroke-width="2.18" stroke-linecap="round" stroke-linejoin="round"/>
<path d="M129.906 231.454C125.279 240.507 130.686 142.779 142.28 123.761" stroke="#C1CFB2" stroke-width="4" stroke-linecap="round" stroke-linejoin="round"/>
<path d="M123.86 66.6225C128.828 49.5939 147.878 40.1759 166.414 45.573C184.95 50.9784 195.948 69.1594 190.98 86.1798C188.26 95.4984 181.318 102.545 172.552 106.127C167.41 109.269 164.092 114.019 162.168 117.593C160.302 121.058 156.777 123.263 152.855 123.454C146.493 123.752 140.846 122.376 136.11 118.82C133.108 116.565 131.482 112.908 131.797 109.161C132.104 105.389 131.897 99.7597 129.177 94.1802C129.102 94.0226 129.027 93.8651 128.969 93.7159C123.297 85.9228 121.107 76.0903 123.877 66.6143L123.86 66.6225Z" fill="#C1CFB2"/>
<path d="M142.676 144.607L132.477 141.633C128.48 140.468 126.179 136.273 127.345 132.278L130.615 121.072C130.977 119.83 132.283 119.114 133.525 119.476L153.7 125.359C154.942 125.721 155.658 127.026 155.296 128.268L152.027 139.474C150.861 143.469 146.665 145.77 142.668 144.604L142.676 144.607Z" fill="#6C8C47"/>
<path d="M130.553 126.745L152.606 133.17C156.081 134.182 159.722 132.192 160.733 128.71C161.745 125.236 159.755 121.597 156.272 120.585L134.219 114.16C130.744 113.149 127.103 115.139 126.091 118.621C125.08 122.094 127.07 125.734 130.553 126.745Z" fill="#6C8C47"/>
<path d="M140.771 129.589C140.381 129.473 129.094 125.991 129.094 125.991L127.145 132.631L140.771 129.589Z" fill="#536B36"/>
<path d="M142.587 110.819C142.562 110.081 151.047 82.0013 151.047 82.0013C151.047 82.0013 156.039 66.2328 146.502 66.2411C137.561 66.2494 142.222 82.5319 152.606 86.4865C153.302 86.7518 154.53 87.1083 155.227 87.2658C166.124 89.6369 178.954 78.4033 171.415 73.5533C163.396 68.3883 159.075 84.3558 159.075 84.3558C159.075 84.3558 151.038 112.56 150.615 113.174" stroke="white" stroke-width="1.49" stroke-linecap="round" stroke-linejoin="round"/>
<path d="M110.251 349.992C160.887 349.992 201.936 308.958 201.936 258.34C201.936 207.723 160.887 166.689 110.251 166.689C59.6148 166.689 18.5662 207.723 18.5662 258.34C18.5662 308.958 59.6148 349.992 110.251 349.992Z" fill="#D1DEC3"/>
<path d="M185.042 205.306C180.978 204.668 139.328 198.632 132.013 220.569C124.341 243.583 105.009 239.745 111.603 263.53C118.204 287.316 136.616 301.119 159.639 298.052C186.103 294.528 135.471 333.792 155.459 338.087C199.605 313.895 217.735 253.333 185.042 205.306Z" fill="#AAC48F"/>
<path d="M60.2824 181.487C60.2824 181.487 100.29 179.149 101.949 193.724C103.608 208.299 93.4813 205.853 80.2117 214.26C66.9421 222.666 61.062 215.992 53.5481 228.768C46.0342 241.544 21.5518 235.044 21.5518 235.044C21.5518 235.044 26.7352 203.308 60.2741 181.487H60.2824Z" fill="#9BB382"/>
<path d="M20.4653 275.212C20.4653 275.212 49.8907 268.902 60.6391 289.62C71.3875 310.338 79.822 301.899 86.7304 311.101C88.6711 313.688 88.4887 317.103 87.2281 320.668C82.3598 334.381 65.6152 339.571 53.6311 331.322C41.5225 322.99 27.1831 306.732 20.4653 275.212Z" fill="#AAC48F"/>
<g style="mix-blend-mode:multiply" opacity="0.68">
<path d="M189.462 304.493C163.96 348.226 107.821 363.008 64.0808 337.515C160.891 331.305 188.898 242.041 156.429 179.158C200.177 204.651 214.965 260.769 189.462 304.493Z" fill="#A1BF82"/>
</g>
<path d="M109.82 290.93C130.431 290.93 147.14 274.227 147.14 253.623C147.14 233.019 130.431 216.316 109.82 216.316C89.2079 216.316 72.4988 233.019 72.4988 253.623C72.4988 274.227 89.2079 290.93 109.82 290.93Z" fill="#004B8B"/>
<path d="M109.363 300.663C134.853 300.663 155.517 280.007 155.517 254.527C155.517 229.046 134.853 208.39 109.363 208.39C83.8736 208.39 63.2101 229.046 63.2101 254.527C63.2101 280.007 83.8736 300.663 109.363 300.663Z" stroke="#004B8B" stroke-width="1.24" stroke-linecap="round" stroke-linejoin="round"/>
<path d="M96.0771 248.342L109.96 268.944L125.925 237.266" stroke="white" stroke-width="5" stroke-linecap="round" stroke-linejoin="round"/>
</g>
<g clip-path="url(#clip1_8_52)">
<path d="M256.97 354.288L278.23 376.222V406.5L240.038 373.504C240.038 373.504 241.24 360.084 240.952 359.114C238.617 351.322 246.456 364.514 246.456 364.514L256.966 354.288H256.97Z" fill="#C2714C"/>
<path d="M171.545 332.406C169.665 329.783 173.121 328.34 174.967 329.955C174.967 329.955 175.224 327.808 177.706 327.993C178.127 328.023 183.266 326.597 189.263 334.729C189.263 334.729 196.497 340.245 197.231 341.276C197.231 341.276 206.487 345.517 207.827 347.149C207.827 347.149 218.117 348.389 218.8 348.222C220.629 347.775 221.934 346.183 222.719 344.912L237.475 337.304C242.378 339.322 251.96 343.985 255.884 350.866L261.263 360.303L245.138 376.342L212.442 368.528C212.442 368.528 196.214 358.405 192.736 355.722C189.254 353.03 173.421 335.029 171.545 332.406Z" fill="#C2714C"/>
<path d="M175.504 332.084C175.504 332.084 192.796 349.776 193.165 349.961C193.53 350.145 211.231 361.428 213.704 361.535" stroke="#9C431A" stroke-width="2.42" stroke-linecap="round" stroke-linejoin="round"/>
<path d="M222.719 345.028C222.96 343.942 222.986 343.117 222.986 343.117C222.986 343.117 222.093 342.018 218.392 339.382C215.593 337.386 211.905 335.068 210.317 334.179C203.22 330.212 202.207 328.594 202.872 326.198C203.19 325.052 204.083 324.086 205.268 324.009C208.312 323.811 213.343 327.01 216.314 328.19C220.204 329.736 230.108 333.097 230.108 333.097C230.108 333.097 236.586 335.669 238.771 337.742L222.719 345.028Z" fill="#C2714C"/>
<path d="M209.745 326.318C209.745 326.318 208.518 329.001 206.47 328.134C204.422 327.267 204.014 327.061 204.014 327.061" stroke="#9C431A" stroke-width="2.42" stroke-linecap="round" stroke-linejoin="round"/>
</g>
<defs>
<clipPath id="clip0_8_52">
<rect width="187.209" height="350" fill="white" transform="translate(14.7428)"/>
</clipPath>
<clipPath id="clip1_8_52">
<rect width="108" height="83.0002" fill="white" transform="translate(171 324)"/>
</clipPath>
</defs>
</svg>
