<svg width="108" height="33" viewBox="0 0 108 33" fill="none" xmlns="http://www.w3.org/2000/svg">
<g clip-path="url(#clip0_2_18)">
<mask id="mask0_2_18" style="mask-type:luminance" maskUnits="userSpaceOnUse" x="0" y="0" width="108" height="33">
<path d="M107.72 0H0V32.66H107.72V0Z" fill="white"/>
</mask>
<g mask="url(#mask0_2_18)">
<path d="M68.91 20.8C68.91 20.8 68.86 20.74 68.83 20.71C68.86 20.74 68.88 20.77 68.91 20.8Z" fill="#00519F"/>
<path d="M72.38 21.46C72.76 21.41 73.13 21.34 73.47 21.24C73.43 21.24 73.39 21.26 73.35 21.27C73.05 21.34 72.72 21.41 72.38 21.46Z" fill="#00519F"/>
<path d="M79.15 28.35L50.59 26.82C32.91 25.98 15.52 26.92 0 31.83V32.67C7.65 31.1 15.59 30.24 23.87 30.16L64.3 32.18C79.61 32.81 95.02 32.67 107.72 26.51V25.99C98.81 28.29 88.9 28.57 79.16 28.36" fill="#00A494"/>
<path d="M16.19 19.19H23.18L24.83 24.43H29.6L22.38 1.32H17.37L9.81 24.47H14.49L16.19 19.18V19.19ZM19.69 7.14L21.77 14.94H17.61L19.69 7.14Z" fill="#00519F"/>
<path d="M31.41 24.48H35.71V12.48C35.71 12.48 40.71 8.68 40.72 12.34V24.44H44.98C44.98 24.44 45.16 12.63 44.64 10.31C44.12 7.99 42.11 6.3 37.46 7.85C36.18 8.28 35.43 8.98 35.43 8.98L34.63 7.14L30.9 8.23C30.9 8.23 31.37 11.54 31.42 17.3C31.47 23.07 31.42 24.48 31.42 24.48" fill="#00519F"/>
<path d="M48.75 20.08L47.52 23.2C53.14 26.65 60.47 25.14 61.13 20.22C61.79 15.3 58.81 14.88 55.65 13.93C52.49 12.98 52.25 11.66 53.52 10.53C54.8 9.4 59.19 11.38 59.19 11.38L60.61 8.64C55.36 5.76 48.75 6.51 48.04 11.57C47.33 16.63 51.82 17.19 53 17.43C54.18 17.67 57.87 18.52 56.4 20.88C54.94 23.24 48.75 20.08 48.75 20.08Z" fill="#00519F"/>
<path d="M77.57 22.87L76.06 19.99C76.06 19.99 76.02 20.02 75.94 20.07C75.23 20.67 74.37 21.01 73.46 21.24C73.12 21.33 72.75 21.41 72.37 21.46C71.12 21.66 69.74 21.66 68.91 20.8C68.88 20.77 68.85 20.75 68.83 20.71C68.66 20.51 68.51 20.28 68.4 19.99C68.07 19.15 68.08 18.16 68.26 17.28H77.96C77.98 16.79 78.21 7.51 71.91 7.19C64.93 6.83 63.26 11.4 63.26 16.17C63.26 20.94 66.94 28.41 77.58 22.88M70.59 10.45C73.66 10.39 73.28 13.99 73.28 13.99H68.32C68.32 13.99 68.13 10.49 70.59 10.45Z" fill="#00519F"/>
<path d="M87.73 24.48L87.16 21.79C87.16 21.79 85.55 22.36 85.55 20.33C85.55 18.3 85.18 0 85.18 0L80.97 0.85C80.97 0.85 80.87 20.03 81.06 21.22C81.25 22.4 81.34 25.66 87.72 24.48" fill="#00519F"/>
<path d="M96.73 24.48L96.16 21.79C96.16 21.79 94.55 22.36 94.55 20.33C94.55 18.3 94.18 0 94.18 0L89.97 0.85C89.97 0.85 89.87 20.03 90.06 21.22C90.25 22.4 90.34 25.66 96.72 24.48" fill="#00519F"/>
</g>
</g>
<defs>
<clipPath id="clip0_2_18">
<rect width="107.72" height="32.66" fill="white"/>
</clipPath>
</defs>
</svg>
