<svg width="277" height="407" viewBox="0 0 277 407" fill="none" xmlns="http://www.w3.org/2000/svg">
<g id="arrows">
    <path d="M189.209 185.535C208.118 211.499 217.49 244.477 212.994 278.836C211.293 291.853 207.715 304.164 202.572 315.539" stroke="#C1CFB2" stroke-width="3.99" stroke-linecap="round" stroke-linejoin="round"/>
    <path d="M196.223 310.433L193.695 331.742L209.689 317.687L196.223 310.433Z" fill="#C1CFB2"/>
    <path d="M26.8974 331.743C7.98898 305.779 -1.38369 272.801 3.11236 238.441C4.81401 225.424 8.39129 213.114 13.5343 201.739" stroke="#C1CFB2" stroke-width="3.99" stroke-linecap="round" stroke-linejoin="round"/>
    <path d="M19.8843 206.844L22.4123 185.535L6.41785 199.591L19.8843 206.844Z" fill="#C1CFB2"/>
</g>
<g id="flower">
    <path d="M108.156 185.641C108.156 185.641 114.766 88.8659 83.267 40.5571" stroke="#C1CFB2" stroke-width="4.74" stroke-linecap="round" stroke-linejoin="round"/>
    <path d="M100.053 16.0338C97.6646 25.5016 81.8157 34.9445 81.8157 34.9445C81.8157 34.9445 72.3445 19.1096 74.733 9.64186C77.1215 0.1824 83.4744 -1.08605 90.4658 0.671539C97.4572 2.42912 102.442 6.56608 100.053 16.0338Z" fill="#D1DEC3"/>
    <path d="M82.2468 66.7469C77.6854 58.1164 83.1342 40.4908 83.1342 40.4908C83.1342 40.4908 100.775 45.9211 105.336 54.5515C109.897 63.1819 106.033 68.3718 99.6549 71.746C93.2772 75.112 86.8082 75.3773 82.2468 66.7469Z" fill="#D1DEC3"/>
    <path d="M109.093 47.1895C99.4476 48.7067 84.5359 37.8379 84.5359 37.8379C84.5359 37.8379 95.3921 22.915 105.037 21.4061C114.683 19.8889 118.349 25.228 119.468 32.3496C120.588 39.4711 118.747 45.6724 109.093 47.1895Z" fill="#D1DEC3"/>
    <path d="M64.2251 15.0557C73.4309 18.3138 81.3761 34.9611 81.3761 34.9611C81.3761 34.9611 64.7227 42.92 55.5169 39.6619C46.3111 36.4037 45.6311 29.9703 48.0362 23.1721C50.4413 16.3738 55.0193 11.7975 64.2251 15.0557Z" fill="#D1DEC3"/>
    <path d="M55.2598 47.3553C61.7454 40.0597 80.1735 38.9902 80.1735 38.9902C80.1735 38.9902 81.26 57.4034 74.7745 64.6991C68.2889 71.9947 62.0688 70.1957 56.678 65.4038C51.2873 60.6119 48.7743 54.651 55.2598 47.3553Z" fill="#D1DEC3"/>
    <path d="M63.8353 41.4774L74.534 38.9156" stroke="#939E88" stroke-width="1.47" stroke-linecap="round" stroke-linejoin="round"/>
    <path d="M79.029 30.7744L76.3087 24.7804" stroke="#939E88" stroke-width="1.47" stroke-linecap="round" stroke-linejoin="round"/>
    <path d="M92.3815 28.196L87.5381 32.648" stroke="#939E88" stroke-width="1.47" stroke-linecap="round" stroke-linejoin="round"/>
    <path d="M88.9397 42.1738L94.6539 45.4486" stroke="#939E88" stroke-width="1.47" stroke-linecap="round" stroke-linejoin="round"/>
    <path d="M81.4009 46.576L80.8452 53.1338" stroke="#939E88" stroke-width="1.47" stroke-linecap="round" stroke-linejoin="round"/>
    <path d="M90.1672 38.6337C89.9848 42.9531 86.3356 46.3024 82.023 46.1201C77.7021 45.9377 74.3515 42.2898 74.534 37.9788C74.7164 33.6594 78.3656 30.3101 82.6782 30.4925C86.9908 30.6749 90.3497 34.3227 90.1672 38.6337Z" fill="#6C8C47"/>
</g>
<g id="plant">
    <path d="M70.7023 140.466C70.7023 140.466 42.8776 110.463 83.1591 81.7527C83.1591 81.7527 101.28 112.718 70.7023 140.466Z" fill="#90BA5E"/>
    <path d="M71.0424 141.287C71.0424 141.287 40.9203 159.443 12.4487 129.216C12.4487 129.216 56.7112 106.201 71.0424 141.287Z" fill="#90BA5E"/>
    <path d="M95.898 200.796C95.898 200.796 87.1318 167.916 56.902 118.04" stroke="#86AD58" stroke-width="4.7" stroke-linecap="round" stroke-linejoin="round"/>
    <path d="M70.0388 129.241L81.6995 86.4949" stroke="#7A9E50" stroke-width="2.18" stroke-linecap="round" stroke-linejoin="round"/>
    <path d="M18.4034 130.211L62.0605 137.838" stroke="#7A9E50" stroke-width="2.18" stroke-linecap="round" stroke-linejoin="round"/>
</g>
<g id="lamp">
    <path d="M127.612 231.454C122.985 240.507 128.392 142.779 139.986 123.761" stroke="#C1CFB2" stroke-width="4" stroke-linecap="round" stroke-linejoin="round"/>
    <path d="M121.566 66.6225C126.534 49.5939 145.584 40.1759 164.12 45.573C182.656 50.9784 193.654 69.1594 188.686 86.1798C185.965 95.4984 179.024 102.545 170.258 106.127C165.116 109.269 161.798 114.019 159.874 117.593C158.008 121.058 154.483 123.263 150.561 123.454C144.199 123.752 138.552 122.376 133.816 118.82C130.814 116.565 129.188 112.908 129.503 109.161C129.81 105.389 129.603 99.7597 126.883 94.1802C126.808 94.0226 126.733 93.8651 126.675 93.7159C121.002 85.9228 118.813 76.0903 121.583 66.6143L121.566 66.6225Z" fill="#C1CFB2"/>
    <path d="M140.382 144.607L130.183 141.633C126.186 140.468 123.885 136.273 125.051 132.278L128.321 121.072C128.683 119.83 129.989 119.114 131.231 119.476L151.406 125.359C152.648 125.721 153.364 127.026 153.002 128.268L149.733 139.474C148.567 143.469 144.371 145.77 140.374 144.604L140.382 144.607Z" fill="#6C8C47"/>
    <path d="M128.259 126.745L150.312 133.17C153.787 134.182 157.428 132.192 158.439 128.71C159.451 125.236 157.461 121.597 153.977 120.585L131.925 114.16C128.45 113.149 124.809 115.139 123.797 118.621C122.786 122.094 124.776 125.734 128.259 126.745Z" fill="#6C8C47"/>
    <path d="M138.477 129.589C138.087 129.473 126.8 125.991 126.8 125.991L124.851 132.631L138.477 129.589Z" fill="#536B36"/>
    <path d="M140.293 110.819C140.268 110.081 148.753 82.0013 148.753 82.0013C148.753 82.0013 153.745 66.2328 144.208 66.2411C135.267 66.2494 139.928 82.5319 150.312 86.4865C151.008 86.7518 152.236 87.1083 152.932 87.2658C163.83 89.6369 176.66 78.4033 169.121 73.5533C161.102 68.3883 156.781 84.3558 156.781 84.3558C156.781 84.3558 148.744 112.56 148.321 113.174" stroke="white" stroke-width="1.49" stroke-linecap="round" stroke-linejoin="round"/>
</g>
<g clip-path="url(#clip0_19_572)">
<path d="M107.957 349.992C158.593 349.992 199.642 308.958 199.642 258.34C199.642 207.723 158.593 166.689 107.957 166.689C57.3207 166.689 16.2721 207.723 16.2721 258.34C16.2721 308.958 57.3207 349.992 107.957 349.992Z" fill="#D1DEC3"/>
<path d="M182.748 205.306C178.684 204.668 137.034 198.632 129.719 220.569C122.047 243.583 102.715 239.745 109.309 263.53C115.91 287.316 134.322 301.119 157.345 298.052C183.809 294.528 133.177 333.792 153.165 338.087C197.311 313.895 215.441 253.333 182.748 205.306Z" fill="#AAC48F"/>
<path d="M57.9884 181.487C57.9884 181.487 97.9962 179.149 99.6549 193.724C101.314 208.299 91.1873 205.853 77.9177 214.26C64.6481 222.666 58.768 215.992 51.254 228.768C43.7401 241.544 19.2577 235.044 19.2577 235.044C19.2577 235.044 24.4411 203.308 57.9801 181.487H57.9884Z" fill="#9BB382"/>
<path d="M18.1713 275.212C18.1713 275.212 47.5966 268.902 58.345 289.62C69.0934 310.338 77.5279 301.899 84.4364 311.101C86.3771 313.688 86.1946 317.103 84.934 320.668C80.0657 334.381 63.3211 339.571 51.337 331.322C39.2285 322.99 24.889 306.732 18.1713 275.212Z" fill="#AAC48F"/>
<g style="mix-blend-mode:multiply" opacity="0.68">
<path d="M187.168 304.493C161.665 348.226 105.527 363.008 61.7867 337.515C158.597 331.305 186.604 242.041 154.135 179.158C197.883 204.651 212.671 260.769 187.168 304.493Z" fill="#A1BF82"/>
</g>
<path d="M107.525 290.93C128.137 290.93 144.846 274.227 144.846 253.623C144.846 233.019 128.137 216.316 107.525 216.316C86.9138 216.316 70.2047 233.019 70.2047 253.623C70.2047 274.227 86.9138 290.93 107.525 290.93Z" fill="#004B8B"/>
<path d="M107.069 300.663C132.559 300.663 153.223 280.007 153.223 254.527C153.223 229.046 132.559 208.39 107.069 208.39C81.5796 208.39 60.916 229.046 60.916 254.527C60.916 280.007 81.5796 300.663 107.069 300.663Z" stroke="#004B8B" stroke-width="1.24" stroke-linecap="round" stroke-linejoin="round"/>
<path d="M93.7832 248.342L107.667 268.944L123.632 237.266" stroke="white" stroke-width="5" stroke-linecap="round" stroke-linejoin="round"/>
</g>
<g clip-path="url(#clip1_19_572)">
<path d="M254.676 354.288L275.936 376.222V406.5L237.744 373.504C237.744 373.504 238.946 360.084 238.658 359.114C236.323 351.322 244.162 364.514 244.162 364.514L254.672 354.288H254.676Z" fill="#C2714C"/>
<path d="M169.251 332.406C167.371 329.783 170.827 328.34 172.673 329.955C172.673 329.955 172.931 327.808 175.412 327.993C175.833 328.023 180.972 326.597 186.969 334.729C186.969 334.729 194.203 340.245 194.937 341.276C194.937 341.276 204.193 345.517 205.533 347.149C205.533 347.149 215.823 348.389 216.506 348.222C218.335 347.775 219.64 346.183 220.425 344.912L235.181 337.304C240.084 339.322 249.666 343.985 253.59 350.866L258.969 360.303L242.844 376.342L210.148 368.528C210.148 368.528 193.92 358.405 190.442 355.722C186.96 353.03 171.127 335.029 169.251 332.406Z" fill="#C2714C"/>
<path d="M173.209 332.084C173.209 332.084 190.502 349.776 190.871 349.961C191.236 350.145 208.937 361.428 211.41 361.535" stroke="#9C431A" stroke-width="2.42" stroke-linecap="round" stroke-linejoin="round"/>
<path d="M220.425 345.028C220.666 343.942 220.692 343.117 220.692 343.117C220.692 343.117 219.799 342.018 216.098 339.382C213.299 337.386 209.611 335.068 208.023 334.179C200.926 330.212 199.913 328.594 200.578 326.198C200.896 325.052 201.789 324.086 202.974 324.009C206.018 323.811 211.049 327.01 214.02 328.19C217.91 329.736 227.814 333.097 227.814 333.097C227.814 333.097 234.292 335.669 236.477 337.742L220.425 345.028Z" fill="#C2714C"/>
<path d="M207.452 326.318C207.452 326.318 206.224 329.001 204.176 328.134C202.128 327.267 201.72 327.061 201.72 327.061" stroke="#9C431A" stroke-width="2.42" stroke-linecap="round" stroke-linejoin="round"/>
</g>
<defs>
<clipPath id="clip0_19_572">
<rect width="187.209" height="350" fill="white" transform="translate(12.4487)"/>
</clipPath>
<clipPath id="clip1_19_572">
<rect width="108" height="83.0002" fill="white" transform="translate(168.706 324)"/>
</clipPath>
</defs>

<style>
#flower,
#lamp,
#plant {
	animation: grow 3.3s cubic-bezier(0.075, 0.22, 0.165, 1) forwards;
	position: relative;
	transform-origin: bottom center;
	opacity: 0;
	transform: scale(0.3) rotate(20deg);
}

#flower {
	animation-delay: 0.7s;
}

#lamp {
	animation-delay: 1.2s;
}

@keyframes grow {
	to {
		opacity: 1;
		transform: scale(1) rotate(0);
	}
}

/* Rotation */
#arrows {
	position: relative;
	transform-origin: center;
	transform: rotate(0deg);
	animation: rotate 3s linear infinite;
}

@keyframes rotate {
	to {
		transform: rotate(0deg);
	}
}
</style>

</svg>

