<svg width="1000" height="340" viewBox="0 0 1000 340" fill="none" xmlns="http://www.w3.org/2000/svg">
<path d="M221.069 240H154.085V298.802H221.069V240Z" fill="#2A5A54"/>
<path d="M200.881 240H133.897V298.802H200.881V240Z" fill="#357069"/>
<g style="mix-blend-mode:soft-light">
<path d="M172.964 240H165.728V251.867H172.964V240Z" fill="white"/>
</g>
<path d="M153.765 287.89H146.8V294.545H153.765V287.89Z" fill="#5FAFA7"/>
<path d="M144.108 287.89H137.144V294.545H144.108V287.89Z" fill="#5FAFA7"/>
<path d="M163.49 287.89H156.525V294.545H163.49V287.89Z" fill="#5FAFA7"/>
<g clip-path="url(#clip0_18_570)">
<path d="M178.655 282.034C179.078 282.767 180.01 283.401 181.263 283.444C181.263 283.444 183.365 283.445 184.117 283.449V278.358H179.454C178.889 279.161 177.882 280.694 178.656 282.034H178.655Z" fill="#DDEBCF"/>
<path d="M175.097 271.856L176.44 272.632L175.882 273.598L175.231 274.726C175.224 274.737 175.218 274.749 175.212 274.76C174.924 275.295 174.931 276.139 175.231 276.66L175.26 276.71C175.787 277.623 177.706 280.946 178.275 281.931C177.501 280.591 178.508 279.057 179.073 278.254L180.85 275.177L182.193 275.953L182.207 275.93L179.908 271.716L175.111 271.832L175.097 271.855V271.856Z" fill="#DDEBCF"/>
<path d="M194.998 276.829C195.421 276.097 195.504 274.973 194.914 273.866C194.914 273.866 193.865 272.045 193.492 271.391L189.082 273.937L191.414 277.976C192.392 278.063 194.224 278.169 194.998 276.829Z" fill="#DDEBCF"/>
<path d="M187.962 285V283.449H189.079C189.079 283.449 189.079 283.449 189.079 283.449H190.381C190.381 283.449 190.381 283.449 190.382 283.449C190.395 283.449 190.408 283.449 190.421 283.448C191.027 283.43 191.755 283.002 192.056 282.482L192.085 282.432C192.612 281.519 194.531 278.196 195.1 277.211C194.326 278.551 192.494 278.445 191.516 278.357H187.962V276.806H187.936L185.436 280.903L187.936 285H187.962Z" fill="#DDEBCF"/>
<path d="M182.319 265.279C181.472 265.279 180.458 265.769 179.794 266.833C179.794 266.833 178.742 268.653 178.362 269.302L182.772 271.848L185.104 267.809C184.691 266.919 183.867 265.279 182.319 265.279H182.319Z" fill="#DDEBCF"/>
<path d="M192.912 267.286L191.569 268.062L191.011 267.095C191.011 267.095 191.011 267.095 191.011 267.095L190.36 265.967C190.36 265.967 190.36 265.967 190.36 265.967C190.354 265.955 190.347 265.944 190.34 265.933C190.021 265.417 189.286 265 188.685 265H188.627C187.573 265 183.736 265 182.598 265C184.145 265 184.97 266.639 185.382 267.53L187.159 270.607L185.816 271.383L185.829 271.406L190.628 271.523L192.925 267.309L192.912 267.286V267.286Z" fill="#DDEBCF"/>
</g>
<path d="M361.172 240H294.188V298.802H361.172V240Z" fill="#2A5A54"/>
<path d="M340.984 240H274V298.802H340.984V240Z" fill="#357069"/>
<g style="mix-blend-mode:soft-light">
<path d="M313.067 240H305.831V251.867H313.067V240Z" fill="white"/>
</g>
<path d="M293.868 287.89H286.903V294.545H293.868V287.89Z" fill="#5FAFA7"/>
<path d="M284.211 287.89H277.247V294.545H284.211V287.89Z" fill="#5FAFA7"/>
<path d="M303.593 287.89H296.628V294.545H303.593V287.89Z" fill="#5FAFA7"/>
<g clip-path="url(#clip1_18_570)">
<path d="M318.758 282.034C319.181 282.767 320.114 283.401 321.366 283.444C321.366 283.444 323.468 283.445 324.22 283.449V278.358H319.557C318.992 279.161 317.985 280.694 318.759 282.034H318.758Z" fill="#DDEBCF"/>
<path d="M315.2 271.856L316.543 272.632L315.985 273.598L315.334 274.726C315.327 274.737 315.321 274.749 315.315 274.76C315.027 275.295 315.034 276.139 315.334 276.66L315.363 276.71C315.89 277.623 317.809 280.946 318.378 281.931C317.604 280.591 318.611 279.057 319.176 278.254L320.953 275.177L322.297 275.953L322.31 275.93L320.011 271.716L315.214 271.832L315.2 271.855V271.856Z" fill="#DDEBCF"/>
<path d="M335.101 276.829C335.524 276.097 335.607 274.973 335.017 273.866C335.017 273.866 333.968 272.045 333.595 271.391L329.185 273.937L331.517 277.976C332.495 278.063 334.327 278.169 335.101 276.829Z" fill="#DDEBCF"/>
<path d="M328.065 285V283.449H329.182C329.182 283.449 329.182 283.449 329.182 283.449H330.484C330.484 283.449 330.484 283.449 330.485 283.449C330.498 283.449 330.511 283.449 330.524 283.448C331.13 283.43 331.858 283.002 332.159 282.482L332.188 282.432C332.715 281.519 334.634 278.196 335.203 277.211C334.429 278.551 332.597 278.445 331.619 278.357H328.065V276.806H328.039L325.539 280.903L328.039 285H328.065Z" fill="#DDEBCF"/>
<path d="M322.422 265.279C321.575 265.279 320.561 265.769 319.897 266.833C319.897 266.833 318.845 268.653 318.465 269.302L322.875 271.848L325.207 267.809C324.794 266.919 323.97 265.279 322.423 265.279H322.422Z" fill="#DDEBCF"/>
<path d="M333.015 267.286L331.672 268.062L331.114 267.095C331.114 267.095 331.114 267.095 331.114 267.095L330.463 265.967C330.463 265.967 330.463 265.967 330.463 265.967C330.457 265.955 330.45 265.944 330.443 265.933C330.124 265.417 329.389 265 328.788 265H328.73C327.676 265 323.839 265 322.701 265C324.248 265 325.073 266.639 325.485 267.53L327.262 270.607L325.919 271.383L325.932 271.406L330.731 271.523L333.028 267.309L333.015 267.286V267.286Z" fill="#DDEBCF"/>
</g>
<path d="M501.172 240H434.188V298.802H501.172V240Z" fill="#2A5A54"/>
<path d="M480.984 240H414V298.802H480.984V240Z" fill="#357069"/>
<g style="mix-blend-mode:soft-light">
<path d="M453.067 240H445.831V251.867H453.067V240Z" fill="white"/>
</g>
<path d="M433.868 287.89H426.903V294.545H433.868V287.89Z" fill="#5FAFA7"/>
<path d="M424.211 287.89H417.247V294.545H424.211V287.89Z" fill="#5FAFA7"/>
<path d="M443.593 287.89H436.628V294.545H443.593V287.89Z" fill="#5FAFA7"/>
<g clip-path="url(#clip2_18_570)">
<path d="M458.758 282.034C459.181 282.767 460.114 283.401 461.366 283.444C461.366 283.444 463.468 283.445 464.22 283.449V278.358H459.557C458.992 279.161 457.985 280.694 458.759 282.034H458.758Z" fill="#DDEBCF"/>
<path d="M455.2 271.856L456.543 272.632L455.985 273.598L455.334 274.726C455.327 274.737 455.321 274.749 455.315 274.76C455.027 275.295 455.034 276.139 455.334 276.66L455.363 276.71C455.89 277.623 457.809 280.946 458.378 281.931C457.604 280.591 458.611 279.057 459.176 278.254L460.953 275.177L462.297 275.953L462.31 275.93L460.011 271.716L455.214 271.832L455.2 271.855V271.856Z" fill="#DDEBCF"/>
<path d="M475.101 276.829C475.524 276.097 475.607 274.973 475.017 273.866C475.017 273.866 473.968 272.045 473.595 271.391L469.185 273.937L471.517 277.976C472.495 278.063 474.327 278.169 475.101 276.829Z" fill="#DDEBCF"/>
<path d="M468.065 285V283.449H469.182C469.182 283.449 469.182 283.449 469.182 283.449H470.484C470.484 283.449 470.484 283.449 470.485 283.449C470.498 283.449 470.511 283.449 470.524 283.448C471.13 283.43 471.858 283.002 472.159 282.482L472.188 282.432C472.715 281.519 474.634 278.196 475.203 277.211C474.429 278.551 472.597 278.445 471.619 278.357H468.065V276.806H468.039L465.539 280.903L468.039 285H468.065Z" fill="#DDEBCF"/>
<path d="M462.422 265.279C461.575 265.279 460.561 265.769 459.897 266.833C459.897 266.833 458.845 268.653 458.465 269.302L462.875 271.848L465.207 267.809C464.794 266.919 463.97 265.279 462.423 265.279H462.422Z" fill="#DDEBCF"/>
<path d="M473.015 267.286L471.672 268.062L471.114 267.095C471.114 267.095 471.114 267.095 471.114 267.095L470.463 265.967C470.463 265.967 470.463 265.967 470.463 265.967C470.457 265.955 470.45 265.944 470.443 265.933C470.124 265.417 469.389 265 468.788 265H468.73C467.676 265 463.839 265 462.701 265C464.248 265 465.073 266.639 465.485 267.53L467.262 270.607L465.919 271.383L465.932 271.406L470.731 271.523L473.028 267.309L473.015 267.286V267.286Z" fill="#DDEBCF"/>
</g>
<path d="M641.172 240H574.188V298.802H641.172V240Z" fill="#2A5A54"/>
<path d="M620.984 240H554V298.802H620.984V240Z" fill="#357069"/>
<g style="mix-blend-mode:soft-light">
<path d="M593.067 240H585.831V251.867H593.067V240Z" fill="white"/>
</g>
<path d="M573.868 287.89H566.903V294.545H573.868V287.89Z" fill="#5FAFA7"/>
<path d="M564.211 287.89H557.247V294.545H564.211V287.89Z" fill="#5FAFA7"/>
<path d="M583.593 287.89H576.628V294.545H583.593V287.89Z" fill="#5FAFA7"/>
<g clip-path="url(#clip3_18_570)">
<path d="M598.758 282.034C599.181 282.767 600.114 283.401 601.366 283.444C601.366 283.444 603.468 283.445 604.22 283.449V278.358H599.557C598.992 279.161 597.985 280.694 598.759 282.034H598.758Z" fill="#DDEBCF"/>
<path d="M595.2 271.856L596.543 272.632L595.985 273.598L595.334 274.726C595.327 274.737 595.321 274.749 595.315 274.76C595.027 275.295 595.034 276.139 595.334 276.66L595.363 276.71C595.89 277.623 597.809 280.946 598.378 281.931C597.604 280.591 598.611 279.057 599.176 278.254L600.953 275.177L602.297 275.953L602.31 275.93L600.011 271.716L595.214 271.832L595.2 271.855V271.856Z" fill="#DDEBCF"/>
<path d="M615.101 276.829C615.524 276.097 615.607 274.973 615.017 273.866C615.017 273.866 613.968 272.045 613.595 271.391L609.185 273.937L611.517 277.976C612.495 278.063 614.327 278.169 615.101 276.829Z" fill="#DDEBCF"/>
<path d="M608.065 285V283.449H609.182C609.182 283.449 609.182 283.449 609.182 283.449H610.484C610.484 283.449 610.484 283.449 610.485 283.449C610.498 283.449 610.511 283.449 610.524 283.448C611.13 283.43 611.858 283.002 612.159 282.482L612.188 282.432C612.715 281.519 614.634 278.196 615.203 277.211C614.429 278.551 612.597 278.445 611.619 278.357H608.065V276.806H608.039L605.539 280.903L608.039 285H608.065Z" fill="#DDEBCF"/>
<path d="M602.422 265.279C601.575 265.279 600.561 265.769 599.897 266.833C599.897 266.833 598.845 268.653 598.465 269.302L602.875 271.848L605.207 267.809C604.794 266.919 603.97 265.279 602.423 265.279H602.422Z" fill="#DDEBCF"/>
<path d="M613.015 267.286L611.672 268.062L611.114 267.095C611.114 267.095 611.114 267.095 611.114 267.095L610.463 265.967C610.463 265.967 610.463 265.967 610.463 265.967C610.457 265.955 610.45 265.944 610.443 265.933C610.124 265.417 609.389 265 608.788 265H608.73C607.676 265 603.839 265 602.701 265C604.248 265 605.073 266.639 605.485 267.53L607.262 270.607L605.919 271.383L605.932 271.406L610.731 271.523L613.028 267.309L613.015 267.286V267.286Z" fill="#DDEBCF"/>
</g>
<path d="M781.172 240H714.188V298.802H781.172V240Z" fill="#2A5A54"/>
<path d="M760.984 240H694V298.802H760.984V240Z" fill="#357069"/>
<g style="mix-blend-mode:soft-light">
<path d="M733.067 240H725.831V251.867H733.067V240Z" fill="white"/>
</g>
<path d="M713.868 287.89H706.903V294.545H713.868V287.89Z" fill="#5FAFA7"/>
<path d="M704.211 287.89H697.247V294.545H704.211V287.89Z" fill="#5FAFA7"/>
<path d="M723.593 287.89H716.628V294.545H723.593V287.89Z" fill="#5FAFA7"/>
<g clip-path="url(#clip4_18_570)">
<path d="M738.758 282.034C739.181 282.767 740.114 283.401 741.366 283.444C741.366 283.444 743.468 283.445 744.22 283.449V278.358H739.557C738.992 279.161 737.985 280.694 738.759 282.034H738.758Z" fill="#DDEBCF"/>
<path d="M735.2 271.856L736.543 272.632L735.985 273.598L735.334 274.726C735.327 274.737 735.321 274.749 735.315 274.76C735.027 275.295 735.034 276.139 735.334 276.66L735.363 276.71C735.89 277.623 737.809 280.946 738.378 281.931C737.604 280.591 738.611 279.057 739.176 278.254L740.953 275.177L742.297 275.953L742.31 275.93L740.011 271.716L735.214 271.832L735.2 271.855V271.856Z" fill="#DDEBCF"/>
<path d="M755.101 276.829C755.524 276.097 755.607 274.973 755.017 273.866C755.017 273.866 753.968 272.045 753.595 271.391L749.185 273.937L751.517 277.976C752.495 278.063 754.327 278.169 755.101 276.829Z" fill="#DDEBCF"/>
<path d="M748.065 285V283.449H749.182C749.182 283.449 749.182 283.449 749.182 283.449H750.484C750.484 283.449 750.484 283.449 750.485 283.449C750.498 283.449 750.511 283.449 750.524 283.448C751.13 283.43 751.858 283.002 752.159 282.482L752.188 282.432C752.715 281.519 754.634 278.196 755.203 277.211C754.429 278.551 752.597 278.445 751.619 278.357H748.065V276.806H748.039L745.539 280.903L748.039 285H748.065Z" fill="#DDEBCF"/>
<path d="M742.422 265.279C741.575 265.279 740.561 265.769 739.897 266.833C739.897 266.833 738.845 268.653 738.465 269.302L742.875 271.848L745.207 267.809C744.794 266.919 743.97 265.279 742.423 265.279H742.422Z" fill="#DDEBCF"/>
<path d="M753.015 267.286L751.672 268.062L751.114 267.095C751.114 267.095 751.114 267.095 751.114 267.095L750.463 265.967C750.463 265.967 750.463 265.967 750.463 265.967C750.457 265.955 750.45 265.944 750.443 265.933C750.124 265.417 749.389 265 748.788 265H748.73C747.676 265 743.839 265 742.701 265C744.248 265 745.073 266.639 745.485 267.53L747.262 270.607L745.919 271.383L745.932 271.406L750.731 271.523L753.028 267.309L753.015 267.286V267.286Z" fill="#DDEBCF"/>
</g>
<path d="M921.172 240H854.188V298.802H921.172V240Z" fill="#2A5A54"/>
<path d="M900.984 240H834V298.802H900.984V240Z" fill="#357069"/>
<g style="mix-blend-mode:soft-light">
<path d="M873.067 240H865.831V251.867H873.067V240Z" fill="white"/>
</g>
<path d="M853.868 287.89H846.903V294.545H853.868V287.89Z" fill="#5FAFA7"/>
<path d="M844.211 287.89H837.247V294.545H844.211V287.89Z" fill="#5FAFA7"/>
<path d="M863.593 287.89H856.628V294.545H863.593V287.89Z" fill="#5FAFA7"/>
<g clip-path="url(#clip5_18_570)">
<path d="M878.758 282.034C879.181 282.767 880.114 283.401 881.366 283.444C881.366 283.444 883.468 283.445 884.22 283.449V278.358H879.557C878.992 279.161 877.985 280.694 878.759 282.034H878.758Z" fill="#DDEBCF"/>
<path d="M875.2 271.856L876.543 272.632L875.985 273.598L875.334 274.726C875.327 274.737 875.321 274.749 875.315 274.76C875.027 275.295 875.034 276.139 875.334 276.66L875.363 276.71C875.89 277.623 877.809 280.946 878.378 281.931C877.604 280.591 878.611 279.057 879.176 278.254L880.953 275.177L882.297 275.953L882.31 275.93L880.011 271.716L875.214 271.832L875.2 271.855V271.856Z" fill="#DDEBCF"/>
<path d="M895.101 276.829C895.524 276.097 895.607 274.973 895.017 273.866C895.017 273.866 893.968 272.045 893.595 271.391L889.185 273.937L891.517 277.976C892.495 278.063 894.327 278.169 895.101 276.829Z" fill="#DDEBCF"/>
<path d="M888.065 285V283.449H889.182C889.182 283.449 889.182 283.449 889.182 283.449H890.484C890.484 283.449 890.484 283.449 890.485 283.449C890.498 283.449 890.511 283.449 890.524 283.448C891.13 283.43 891.858 283.002 892.159 282.482L892.188 282.432C892.715 281.519 894.634 278.196 895.203 277.211C894.429 278.551 892.597 278.445 891.619 278.357H888.065V276.806H888.039L885.539 280.903L888.039 285H888.065Z" fill="#DDEBCF"/>
<path d="M882.422 265.279C881.575 265.279 880.561 265.769 879.897 266.833C879.897 266.833 878.845 268.653 878.465 269.302L882.875 271.848L885.207 267.809C884.794 266.919 883.97 265.279 882.423 265.279H882.422Z" fill="#DDEBCF"/>
<path d="M893.015 267.286L891.672 268.062L891.114 267.095C891.114 267.095 891.114 267.095 891.114 267.095L890.463 265.967C890.463 265.967 890.463 265.967 890.463 265.967C890.457 265.955 890.45 265.944 890.443 265.933C890.124 265.417 889.389 265 888.788 265H888.73C887.676 265 883.839 265 882.701 265C884.248 265 885.073 266.639 885.485 267.53L887.262 270.607L885.919 271.383L885.932 271.406L890.731 271.523L893.028 267.309L893.015 267.286V267.286Z" fill="#DDEBCF"/>
</g>
<path d="M208.257 320.565C208.257 325.26 210.159 329.505 213.235 332.582C216.311 335.658 220.557 337.559 225.252 337.559H964.517C973.906 337.559 981.511 329.949 981.511 320.565C981.511 315.871 979.61 311.619 976.533 308.548C973.457 305.477 969.211 303.571 964.517 303.571H225.252C215.868 303.571 208.257 311.181 208.257 320.565Z" fill="#48C6C6"/>
<path d="M228.904 336.993H232.659V340H228.904V336.993ZM236.408 336.993H240.163V340H236.408V336.993ZM243.912 336.993H247.667V340H243.912V336.993ZM251.416 336.993H255.17V340H251.416V336.993ZM258.919 336.993H262.674V340H258.919V336.993ZM266.423 336.993H270.178V340H266.423V336.993ZM273.927 336.993H277.681V340H273.927V336.993ZM281.431 336.993H285.185V340H281.431V336.993ZM288.934 336.993H292.689V340H288.934V336.993ZM296.438 336.993H300.193V340H296.438V336.993ZM303.942 336.993H307.696V340H303.942V336.993ZM311.446 336.993H315.2V340H311.446V336.993ZM318.949 336.993H322.704V340H318.949V336.993ZM326.453 336.993H330.208V340H326.453V336.993ZM333.957 336.993H337.711V340H333.957V336.993ZM341.461 336.993H345.215V340H341.461V336.993ZM348.964 336.993H352.719V340H348.964V336.993ZM356.468 336.993H360.223V340H356.468V336.993ZM363.972 336.993H367.726V340H363.972V336.993ZM371.475 336.993H375.23V340H371.475V336.993ZM378.979 336.993H382.734V340H378.979V336.993ZM386.483 336.993H390.238V340H386.483V336.993ZM393.987 336.993H397.741V340H393.987V336.993ZM401.49 336.993H405.245V340H401.49V336.993ZM408.994 336.993H412.749V340H408.994V336.993ZM416.498 336.993H420.253V340H416.498V336.993ZM424.002 336.993H427.756V340H424.002V336.993ZM431.505 336.993H435.26V340H431.505V336.993ZM439.009 336.993H442.764V340H439.009V336.993ZM446.513 336.993H450.267V340H446.513V336.993ZM454.017 336.993H457.771V340H454.017V336.993ZM461.52 336.993H465.275V340H461.52V336.993ZM469.024 336.993H472.779V340H469.024V336.993ZM476.528 336.993H480.282V340H476.528V336.993ZM484.032 336.993H487.786V340H484.032V336.993ZM491.535 336.993H495.29V340H491.535V336.993ZM499.039 336.993H502.794V340H499.039V336.993ZM506.543 336.993H510.297V340H506.543V336.993ZM514.047 336.993H517.801V340H514.047V336.993ZM521.55 336.993H525.305V340H521.55V336.993ZM529.054 336.993H532.809V340H529.054V336.993ZM536.558 336.993H540.312V340H536.558V336.993ZM544.062 336.993H547.816V340H544.062V336.993ZM551.565 336.993H555.32V340H551.565V336.993ZM559.069 336.993H562.824V340H559.069V336.993ZM566.573 336.993H570.327V340H566.573V336.993ZM574.077 336.993H577.831V340H574.077V336.993ZM581.58 336.993H585.335V340H581.58V336.993ZM589.084 336.993H592.838V340H589.084V336.993ZM596.588 336.993H600.342V340H596.588V336.993ZM604.091 336.993H607.846V340H604.091V336.993ZM611.595 336.993H615.35V340H611.595V336.993ZM619.099 336.993H622.853V340H619.099V336.993ZM626.603 336.993H630.357V340H626.603V336.993ZM634.106 336.993H637.861V340H634.106V336.993ZM641.61 336.993H645.365V340H641.61V336.993ZM649.114 336.993H652.868V340H649.114V336.993ZM656.618 336.993H660.372V340H656.618V336.993ZM664.121 336.993H667.876V340H664.121V336.993ZM671.625 336.993H675.38V340H671.625V336.993ZM679.129 336.993H682.883V340H679.129V336.993ZM686.633 336.993H690.387V340H686.633V336.993ZM694.136 336.993H697.891V340H694.136V336.993ZM701.64 336.993H705.395V340H701.64V336.993ZM709.144 336.993H712.898V340H709.144V336.993ZM716.648 336.993H720.402V340H716.648V336.993ZM724.151 336.993H727.906V340H724.151V336.993ZM731.655 336.993H735.409V340H731.655V336.993ZM739.159 336.993H742.913V340H739.159V336.993ZM746.662 336.993H750.417V340H746.662V336.993ZM754.166 336.993H757.921V340H754.166V336.993ZM761.67 336.993H765.425V340H761.67V336.993ZM769.174 336.993H772.928V340H769.174V336.993ZM776.677 336.993H780.432V340H776.677V336.993ZM784.181 336.993H787.936V340H784.181V336.993ZM791.685 336.993H795.439V340H791.685V336.993ZM799.189 336.993H802.943V340H799.189V336.993ZM806.692 336.993H810.447V340H806.692V336.993ZM814.196 336.993H817.951V340H814.196V336.993ZM821.7 336.993H825.454V340H821.7V336.993ZM829.204 336.993H832.958V340H829.204V336.993ZM836.707 336.993H840.462V340H836.707V336.993ZM844.211 336.993H847.966V340H844.211V336.993ZM851.715 336.993H855.469V340H851.715V336.993ZM859.219 336.993H862.973V340H859.219V336.993ZM866.722 336.993H870.477V340H866.722V336.993ZM874.226 336.993H877.981V340H874.226V336.993ZM881.73 336.993H885.484V340H881.73V336.993ZM889.233 336.993H892.988V340H889.233V336.993ZM896.737 336.993H900.492V340H896.737V336.993ZM904.241 336.993H907.996V340H904.241V336.993ZM911.745 336.993H915.499V340H911.745V336.993ZM919.249 336.993H923.003V340H919.249V336.993ZM926.752 336.993H930.507V340H926.752V336.993ZM934.256 336.993H938.01V340H934.256V336.993ZM941.76 336.993H945.514V340H941.76V336.993ZM949.263 336.993H953.018V340H949.263V336.993ZM956.767 336.993H960.522V340H956.767V336.993ZM964.271 336.993H964.346C965.494 336.993 966.642 336.876 967.758 336.635L968.383 339.578C967.064 339.856 965.708 340 964.346 340H964.271V336.993ZM220.941 339.557L221.582 336.614C222.699 336.854 223.841 336.982 224.99 336.988L224.974 339.995C223.617 339.989 222.261 339.84 220.941 339.551V339.557ZM971.022 335.572C972.063 335.108 973.062 334.531 973.991 333.853L975.759 336.288C974.664 337.084 973.478 337.773 972.245 338.323L971.016 335.572H971.022ZM213.587 336.224L215.371 333.799C216.295 334.478 217.288 335.06 218.33 335.535L217.085 338.275C215.852 337.719 214.677 337.025 213.582 336.224H213.587ZM976.544 331.556C977.313 330.707 977.991 329.772 978.568 328.784L981.169 330.296C980.491 331.465 979.684 332.566 978.776 333.575L976.544 331.556ZM208.209 330.205L210.821 328.71C211.387 329.703 212.065 330.638 212.829 331.492L210.586 333.495C209.683 332.486 208.882 331.375 208.209 330.205ZM979.967 325.655C980.32 324.571 980.565 323.444 980.683 322.301L983.674 322.616C983.53 323.967 983.246 325.302 982.825 326.589L979.962 325.655H979.967ZM205.742 322.514L208.738 322.215C208.85 323.358 209.085 324.485 209.438 325.575L206.575 326.493C206.164 325.206 205.881 323.866 205.747 322.514H205.742ZM979.989 315.513L982.851 314.589C983.268 315.876 983.551 317.216 983.69 318.562L980.699 318.867C980.581 317.729 980.347 316.597 979.994 315.513H979.989ZM205.758 318.455C205.902 317.104 206.19 315.769 206.618 314.487L209.475 315.427C209.117 316.511 208.871 317.638 208.749 318.776L205.758 318.45V318.455ZM976.581 309.6L978.819 307.592C979.722 308.602 980.523 309.707 981.201 310.877L978.595 312.378C978.023 311.39 977.345 310.45 976.581 309.6ZM208.284 310.786C208.962 309.622 209.774 308.516 210.682 307.512L212.909 309.531C212.14 310.38 211.456 311.315 210.879 312.298L208.279 310.781L208.284 310.786ZM971.07 305.568L972.303 302.823C973.537 303.379 974.717 304.067 975.807 304.869L974.028 307.293C973.104 306.615 972.106 306.033 971.064 305.563L971.07 305.568ZM213.705 304.804C214.805 304.009 215.985 303.325 217.224 302.78L218.447 305.531C217.406 305.995 216.402 306.572 215.473 307.245L213.71 304.81L213.705 304.804ZM964.404 304.126L964.415 301.119C965.777 301.119 967.134 301.269 968.447 301.557L967.812 304.5C966.701 304.26 965.553 304.137 964.399 304.132L964.404 304.126ZM221.086 301.531C222.394 301.258 223.735 301.119 225.08 301.119H225.118V304.126H225.08C223.943 304.126 222.805 304.244 221.7 304.473L221.08 301.531H221.086ZM228.872 301.119H232.627V304.126H228.872V301.119ZM236.376 301.119H240.131V304.126H236.376V301.119ZM243.88 301.119H247.634V304.126H243.88V301.119ZM251.384 301.119H255.138V304.126H251.384V301.119ZM258.887 301.119H262.642V304.126H258.887V301.119ZM266.391 301.119H270.146V304.126H266.391V301.119ZM273.895 301.119H277.649V304.126H273.895V301.119ZM281.399 301.119H285.153V304.126H281.399V301.119ZM288.902 301.119H292.657V304.126H288.902V301.119ZM296.406 301.119H300.161V304.126H296.406V301.119ZM303.91 301.119H307.664V304.126H303.91V301.119ZM311.414 301.119H315.168V304.126H311.414V301.119ZM318.917 301.119H322.672V304.126H318.917V301.119ZM326.421 301.119H330.176V304.126H326.421V301.119ZM333.925 301.119H337.679V304.126H333.925V301.119ZM341.428 301.119H345.183V304.126H341.428V301.119ZM348.932 301.119H352.687V304.126H348.932V301.119ZM356.436 301.119H360.191V304.126H356.436V301.119ZM363.94 301.119H367.694V304.126H363.94V301.119ZM371.443 301.119H375.198V304.126H371.443V301.119ZM378.947 301.119H382.702V304.126H378.947V301.119ZM386.451 301.119H390.206V304.126H386.451V301.119ZM393.955 301.119H397.709V304.126H393.955V301.119ZM401.458 301.119H405.213V304.126H401.458V301.119ZM408.962 301.119H412.717V304.126H408.962V301.119ZM416.466 301.119H420.22V304.126H416.466V301.119ZM423.97 301.119H427.724V304.126H423.97V301.119ZM431.473 301.119H435.228V304.126H431.473V301.119ZM438.977 301.119H442.732V304.126H438.977V301.119ZM446.481 301.119H450.235V304.126H446.481V301.119ZM453.985 301.119H457.739V304.126H453.985V301.119ZM461.488 301.119H465.243V304.126H461.488V301.119ZM468.992 301.119H472.747V304.126H468.992V301.119ZM476.496 301.119H480.25V304.126H476.496V301.119ZM484 301.119H487.754V304.126H484V301.119ZM491.503 301.119H495.258V304.126H491.503V301.119ZM499.007 301.119H502.762V304.126H499.007V301.119ZM506.511 301.119H510.265V304.126H506.511V301.119ZM514.015 301.119H517.769V304.126H514.015V301.119ZM521.518 301.119H525.273V304.126H521.518V301.119ZM529.022 301.119H532.777V304.126H529.022V301.119ZM536.526 301.119H540.28V304.126H536.526V301.119ZM544.029 301.119H547.784V304.126H544.029V301.119ZM551.533 301.119H555.288V304.126H551.533V301.119ZM559.037 301.119H562.792V304.126H559.037V301.119ZM566.541 301.119H570.295V304.126H566.541V301.119ZM574.044 301.119H577.799V304.126H574.044V301.119ZM581.548 301.119H585.303V304.126H581.548V301.119ZM589.052 301.119H592.806V304.126H589.052V301.119ZM596.556 301.119H600.31V304.126H596.556V301.119ZM604.059 301.119H607.814V304.126H604.059V301.119ZM611.563 301.119H615.318V304.126H611.563V301.119ZM619.067 301.119H622.821V304.126H619.067V301.119ZM626.571 301.119H630.325V304.126H626.571V301.119ZM634.074 301.119H637.829V304.126H634.074V301.119ZM641.578 301.119H645.333V304.126H641.578V301.119ZM649.082 301.119H652.836V304.126H649.082V301.119ZM656.586 301.119H660.34V304.126H656.586V301.119ZM664.089 301.119H667.844V304.126H664.089V301.119ZM671.593 301.119H675.348V304.126H671.593V301.119ZM679.097 301.119H682.851V304.126H679.097V301.119ZM686.601 301.119H690.355V304.126H686.601V301.119ZM694.104 301.119H697.859V304.126H694.104V301.119ZM701.608 301.119H705.362V304.126H701.608V301.119ZM709.112 301.119H712.866V304.126H709.112V301.119ZM716.615 301.119H720.37V304.126H716.615V301.119ZM724.119 301.119H727.874V304.126H724.119V301.119ZM731.623 301.119H735.378V304.126H731.623V301.119ZM739.127 301.119H742.881V304.126H739.127V301.119ZM746.63 301.119H750.385V304.126H746.63V301.119ZM754.134 301.119H757.889V304.126H754.134V301.119ZM761.638 301.119H765.392V304.126H761.638V301.119ZM769.142 301.119H772.896V304.126H769.142V301.119ZM776.645 301.119H780.4V304.126H776.645V301.119ZM784.149 301.119H787.904V304.126H784.149V301.119ZM791.653 301.119H795.407V304.126H791.653V301.119ZM799.157 301.119H802.911V304.126H799.157V301.119ZM806.66 301.119H810.415V304.126H806.66V301.119ZM814.164 301.119H817.919V304.126H814.164V301.119ZM821.668 301.119H825.422V304.126H821.668V301.119ZM829.172 301.119H832.926V304.126H829.172V301.119ZM836.675 301.119H840.43V304.126H836.675V301.119ZM844.179 301.119H847.934V304.126H844.179V301.119ZM851.683 301.119H855.437V304.126H851.683V301.119ZM859.186 301.119H862.941V304.126H859.186V301.119ZM866.69 301.119H870.445V304.126H866.69V301.119ZM874.194 301.119H877.949V304.126H874.194V301.119ZM881.698 301.119H885.452V304.126H881.698V301.119ZM889.202 301.119H892.956V304.126H889.202V301.119ZM896.705 301.119H900.46V304.126H896.705V301.119ZM904.209 301.119H907.963V304.126H904.209V301.119ZM911.713 301.119H915.467V304.126H911.713V301.119ZM919.216 301.119H922.971V304.126H919.216V301.119ZM926.72 301.119H930.475V304.126H926.72V301.119ZM934.224 301.119H937.978V304.126H934.224V301.119ZM941.728 301.119H945.482V304.126H941.728V301.119ZM949.231 301.119H952.986V304.126H949.231V301.119ZM956.735 301.119H960.49V304.126H956.735V301.119Z" fill="#004B8B"/>
<path d="M206.751 320.56C206.751 310.359 215.05 302.059 225.251 302.059H964.516C974.717 302.059 983.017 310.359 983.017 320.56C983.017 330.76 974.717 339.06 964.516 339.06H225.251C215.05 339.06 206.751 330.76 206.751 320.56ZM225.251 305.072C216.711 305.072 209.763 312.02 209.763 320.56C209.763 329.099 216.711 336.048 225.251 336.048H964.516C973.056 336.048 980.005 329.099 980.005 320.56C980.005 312.02 973.056 305.072 964.516 305.072H225.251Z" fill="#004B8B"/>
<path d="M956.874 314.445C953.68 318.124 954.075 323.7 957.761 326.894C961.44 330.088 967.016 329.687 970.21 326.007C973.404 322.328 973.008 316.752 969.323 313.558C965.644 310.364 960.068 310.76 956.874 314.445ZM959.555 316.768C961.467 314.567 964.794 314.327 967 316.239C969.2 318.146 969.441 321.478 967.529 323.684C965.617 325.89 962.29 326.125 960.084 324.213C957.883 322.301 957.643 318.974 959.555 316.768Z" fill="#004B8B"/>
<path d="M864.81 314.445C861.616 318.124 862.012 323.7 865.697 326.894C869.376 330.088 874.952 329.687 878.146 326.007C881.34 322.328 880.944 316.752 877.259 313.558C873.58 310.364 868.004 310.76 864.81 314.445ZM867.491 316.768C869.403 314.567 872.73 314.327 874.936 316.239C877.136 318.146 877.377 321.478 875.465 323.684C873.553 325.89 870.226 326.125 868.02 324.213C865.819 322.301 865.579 318.974 867.491 316.768Z" fill="#004B8B"/>
<path d="M772.741 314.445C769.547 318.124 769.943 323.7 773.628 326.894C777.307 330.088 782.883 329.687 786.077 326.007C789.271 322.328 788.876 316.752 785.19 313.558C781.511 310.364 775.935 310.76 772.741 314.445ZM775.422 316.768C777.334 314.567 780.661 314.327 782.867 316.239C785.068 318.146 785.308 321.478 783.396 323.684C781.484 325.884 778.157 326.125 775.951 324.213C773.751 322.301 773.51 318.974 775.422 316.768Z" fill="#004B8B"/>
<path d="M680.678 314.445C677.484 318.124 677.879 323.7 681.564 326.894C685.244 330.088 690.82 329.687 694.013 326.007C697.207 322.328 696.812 316.752 693.127 313.558C689.447 310.364 683.871 310.76 680.678 314.445ZM683.359 316.768C685.271 314.567 688.598 314.327 690.804 316.239C693.004 318.146 693.245 321.478 691.333 323.684C689.421 325.89 686.093 326.125 683.887 324.213C681.687 322.301 681.447 318.974 683.359 316.768Z" fill="#004B8B"/>
<path d="M588.614 314.445C585.42 318.124 585.815 323.7 589.5 326.894C593.18 330.088 598.756 329.687 601.95 326.007C605.143 322.328 604.748 316.752 601.063 313.558C597.383 310.364 591.808 310.76 588.614 314.445ZM591.295 316.768C593.207 314.567 596.534 314.327 598.74 316.239C600.94 318.146 601.18 321.478 599.269 323.684C597.357 325.89 594.029 326.125 591.824 324.213C589.623 322.301 589.383 318.974 591.295 316.768Z" fill="#004B8B"/>
<path d="M496.55 314.445C493.356 318.124 493.752 323.7 497.437 326.894C501.117 330.088 506.692 329.687 509.886 326.007C513.08 322.328 512.685 316.752 508.999 313.558C505.32 310.364 499.744 310.76 496.55 314.445ZM499.231 316.768C501.143 314.567 504.471 314.327 506.676 316.239C508.877 318.146 509.117 321.478 507.205 323.684C505.293 325.884 501.966 326.125 499.76 324.213C497.56 322.301 497.319 318.974 499.231 316.768Z" fill="#004B8B"/>
<path d="M404.487 314.445C401.293 318.124 401.688 323.7 405.373 326.894C409.053 330.088 414.629 329.687 417.823 326.007C421.016 322.328 420.621 316.752 416.936 313.558C413.256 310.364 407.681 310.76 404.487 314.445ZM407.168 316.768C409.08 314.567 412.407 314.327 414.613 316.239C416.813 318.146 417.054 321.478 415.142 323.684C413.23 325.89 409.902 326.125 407.697 324.213C405.496 322.301 405.256 318.974 407.168 316.768Z" fill="#004B8B"/>
<path d="M312.417 314.445C309.224 318.124 309.619 323.7 313.304 326.894C316.984 330.088 322.559 329.687 325.753 326.007C328.947 322.328 328.552 316.752 324.867 313.558C321.187 310.364 315.611 310.76 312.417 314.445ZM315.098 316.768C317.01 314.567 320.338 314.327 322.543 316.239C324.744 318.146 324.984 321.478 323.072 323.684C321.16 325.89 317.833 326.125 315.627 324.213C313.427 322.301 313.187 318.974 315.098 316.768Z" fill="#004B8B"/>
<path d="M220.354 314.445C217.16 318.124 217.555 323.7 221.241 326.894C224.92 330.088 230.496 329.687 233.69 326.007C236.884 322.328 236.488 316.752 232.803 313.558C229.123 310.364 223.548 310.76 220.354 314.445ZM223.035 316.768C224.947 314.567 228.274 314.327 230.48 316.239C232.68 318.146 232.921 321.478 231.009 323.684C229.097 325.884 225.769 326.125 223.564 324.213C221.363 322.301 221.123 318.974 223.035 316.768Z" fill="#004B8B"/>
<path d="M18.5 320.565C18.5 325.26 20.4013 329.505 23.4775 332.582C26.5538 335.658 30.7997 337.559 35.4942 337.559H774.759C784.148 337.559 791.754 329.949 791.754 320.565C791.754 315.871 789.852 311.619 786.776 308.548C783.7 305.472 779.454 303.571 774.759 303.571H35.4889C26.1052 303.571 18.4946 311.181 18.4946 320.565H18.5Z" fill="#48C6C6"/>
<path d="M39.1471 336.993H42.9017V340H39.1471V336.993ZM46.6509 336.993H50.4054V340H46.6509V336.993ZM54.1546 336.993H57.9091V340H54.1546V336.993ZM61.6583 336.993H65.4129V340H61.6583V336.993ZM69.1621 336.993H72.9166V340H69.1621V336.993ZM76.6658 336.993H80.4204V340H76.6658V336.993ZM84.1696 336.993H87.9241V340H84.1696V336.993ZM91.6733 336.993H95.4278V340H91.6733V336.993ZM99.177 336.993H102.932V340H99.177V336.993ZM106.681 336.993H110.435V340H106.681V336.993ZM114.185 336.993H117.939V340H114.185V336.993ZM121.688 336.993H125.443V340H121.688V336.993ZM129.192 336.993H132.947V340H129.192V336.993ZM136.696 336.993H140.45V340H136.696V336.993ZM144.199 336.993H147.954V340H144.199V336.993ZM151.703 336.993H155.458V340H151.703V336.993ZM159.207 336.993H162.961V340H159.207V336.993ZM166.711 336.993H170.465V340H166.711V336.993ZM174.214 336.993H177.969V340H174.214V336.993ZM181.718 336.993H185.473V340H181.718V336.993ZM189.222 336.993H192.976V340H189.222V336.993ZM196.726 336.993H200.48V340H196.726V336.993ZM204.229 336.993H207.984V340H204.229V336.993ZM211.733 336.993H215.488V340H211.733V336.993ZM219.237 336.993H222.991V340H219.237V336.993ZM226.741 336.993H230.495V340H226.741V336.993ZM234.244 336.993H237.999V340H234.244V336.993ZM241.748 336.993H245.503V340H241.748V336.993ZM249.252 336.993H253.006V340H249.252V336.993ZM256.756 336.993H260.51V340H256.756V336.993ZM264.259 336.993H268.014V340H264.259V336.993ZM271.763 336.993H275.518V340H271.763V336.993ZM279.267 336.993H283.021V340H279.267V336.993ZM286.771 336.993H290.525V340H286.771V336.993ZM294.274 336.993H298.029V340H294.274V336.993ZM301.778 336.993H305.533V340H301.778V336.993ZM309.282 336.993H313.036V340H309.282V336.993ZM316.785 336.993H320.54V340H316.785V336.993ZM324.289 336.993H328.044V340H324.289V336.993ZM331.793 336.993H335.547V340H331.793V336.993ZM339.297 336.993H343.051V340H339.297V336.993ZM346.8 336.993H350.555V340H346.8V336.993ZM354.304 336.993H358.059V340H354.304V336.993ZM361.808 336.993H365.562V340H361.808V336.993ZM369.312 336.993H373.066V340H369.312V336.993ZM376.815 336.993H380.57V340H376.815V336.993ZM384.319 336.993H388.074V340H384.319V336.993ZM391.823 336.993H395.577V340H391.823V336.993ZM399.327 336.993H403.081V340H399.327V336.993ZM406.83 336.993H410.585V340H406.83V336.993ZM414.334 336.993H418.089V340H414.334V336.993ZM421.838 336.993H425.592V340H421.838V336.993ZM429.342 336.993H433.096V340H429.342V336.993ZM436.845 336.993H440.6V340H436.845V336.993ZM444.349 336.993H448.104V340H444.349V336.993ZM451.853 336.993H455.607V340H451.853V336.993ZM459.357 336.993H463.111V340H459.357V336.993ZM466.86 336.993H470.615V340H466.86V336.993ZM474.364 336.993H478.119V340H474.364V336.993ZM481.868 336.993H485.622V340H481.868V336.993ZM489.371 336.993H493.126V340H489.371V336.993ZM496.875 336.993H500.63V340H496.875V336.993ZM504.379 336.993H508.133V340H504.379V336.993ZM511.883 336.993H515.637V340H511.883V336.993ZM519.386 336.993H523.141V340H519.386V336.993ZM526.89 336.993H530.645V340H526.89V336.993ZM534.394 336.993H538.148V340H534.394V336.993ZM541.898 336.993H545.652V340H541.898V336.993ZM549.401 336.993H553.156V340H549.401V336.993ZM556.905 336.993H560.66V340H556.905V336.993ZM564.409 336.993H568.163V340H564.409V336.993ZM571.913 336.993H575.667V340H571.913V336.993ZM579.416 336.993H583.171V340H579.416V336.993ZM586.92 336.993H590.675V340H586.92V336.993ZM594.424 336.993H598.178V340H594.424V336.993ZM601.928 336.993H605.682V340H601.928V336.993ZM609.431 336.993H613.186V340H609.431V336.993ZM616.935 336.993H620.69V340H616.935V336.993ZM624.439 336.993H628.193V340H624.439V336.993ZM631.943 336.993H635.697V340H631.943V336.993ZM639.446 336.993H643.201V340H639.446V336.993ZM646.95 336.993H650.705V340H646.95V336.993ZM654.454 336.993H658.208V340H654.454V336.993ZM661.957 336.993H665.712V340H661.957V336.993ZM669.461 336.993H673.216V340H669.461V336.993ZM676.965 336.993H680.719V340H676.965V336.993ZM684.469 336.993H688.223V340H684.469V336.993ZM691.972 336.993H695.727V340H691.972V336.993ZM699.476 336.993H703.231V340H699.476V336.993ZM706.98 336.993H710.734V340H706.98V336.993ZM714.484 336.993H718.238V340H714.484V336.993ZM721.987 336.993H725.742V340H721.987V336.993ZM729.491 336.993H733.246V340H729.491V336.993ZM736.995 336.993H740.749V340H736.995V336.993ZM744.499 336.993H748.253V340H744.499V336.993ZM752.002 336.993H755.757V340H752.002V336.993ZM759.506 336.993H763.261V340H759.506V336.993ZM767.01 336.993H770.764V340H767.01V336.993ZM774.514 336.993H774.588C775.737 336.993 776.885 336.876 778.001 336.635L778.626 339.578C777.307 339.856 775.95 340 774.588 340H774.514V336.993ZM31.3496 339.557L31.9905 336.614C33.1068 336.854 34.2497 336.982 35.3979 336.988L35.3819 339.995C34.0254 339.989 32.6688 339.84 31.3496 339.551V339.557ZM781.43 335.573C782.471 335.108 783.47 334.531 784.399 333.853L786.167 336.288C785.072 337.084 783.887 337.773 782.653 338.323L781.424 335.573H781.43ZM23.9954 336.224L25.7793 333.799C26.7032 334.478 27.6966 335.06 28.738 335.535L27.4936 338.275C26.2599 337.719 25.085 337.025 23.9901 336.224H23.9954ZM786.952 331.556C787.721 330.707 788.399 329.772 788.976 328.784L791.577 330.296C790.899 331.465 790.093 332.566 789.185 333.575L786.952 331.556ZM18.6173 330.21L21.2289 328.715C21.7951 329.708 22.4733 330.643 23.2371 331.498L20.994 333.5C20.0914 332.491 19.2903 331.38 18.6173 330.21ZM790.376 325.66C790.728 324.576 790.974 323.449 791.091 322.306L794.082 322.621C793.938 323.972 793.655 325.308 793.233 326.595L790.37 325.66H790.376ZM16.1499 322.514L19.1461 322.215C19.2582 323.358 19.4932 324.485 19.8457 325.575L16.9831 326.493C16.5718 325.206 16.2888 323.866 16.1552 322.514H16.1499ZM790.397 315.513L793.26 314.589C793.676 315.876 793.959 317.216 794.098 318.562L791.107 318.867C790.99 317.729 790.755 316.597 790.402 315.513H790.397ZM16.1659 318.461C16.3101 317.11 16.5985 315.774 17.0258 314.493L19.8831 315.433C19.5252 316.517 19.2796 317.644 19.1567 318.781L16.1659 318.455V318.461ZM786.989 309.606L789.227 307.598C790.13 308.607 790.931 309.713 791.609 310.882L789.003 312.383C788.431 311.395 787.753 310.455 786.989 309.606ZM18.6921 310.791C19.3704 309.627 20.1822 308.522 21.0901 307.518L23.3172 309.536C22.5481 310.386 21.8645 311.32 21.2877 312.303L18.6868 310.786L18.6921 310.791ZM781.478 305.574L782.712 302.828C783.945 303.384 785.126 304.073 786.215 304.874L784.437 307.299C783.513 306.62 782.514 306.038 781.473 305.568L781.478 305.574ZM24.1129 304.81C25.2131 304.014 26.3934 303.33 27.6325 302.786L28.8555 305.536C27.8141 306.001 26.81 306.578 25.8807 307.251L24.1183 304.815L24.1129 304.81ZM774.813 304.132L774.823 301.125C776.185 301.125 777.542 301.274 778.856 301.563L778.22 304.505C777.109 304.265 775.961 304.142 774.807 304.137L774.813 304.132ZM31.4938 301.536C32.8023 301.264 34.1429 301.125 35.4887 301.125H35.5261V304.132H35.4887C34.3511 304.132 33.2136 304.249 32.108 304.479L31.4885 301.536H31.4938ZM39.2806 301.125H43.0352V304.132H39.2806V301.125ZM46.7844 301.125H50.5389V304.132H46.7844V301.125ZM54.2881 301.125H58.0427V304.132H54.2881V301.125ZM61.7919 301.125H65.5464V304.132H61.7919V301.125ZM69.2956 301.125H73.0501V304.132H69.2956V301.125ZM76.7993 301.125H80.5539V304.132H76.7993V301.125ZM84.3031 301.125H88.0576V304.132H84.3031V301.125ZM91.8068 301.125H95.5614V304.132H91.8068V301.125ZM99.3106 301.125H103.065V304.132H99.3106V301.125ZM106.814 301.125H110.569V304.132H106.814V301.125ZM114.318 301.125H118.073V304.132H114.318V301.125ZM121.822 301.125H125.576V304.132H121.822V301.125ZM129.326 301.125H133.08V304.132H129.326V301.125ZM136.829 301.125H140.584V304.132H136.829V301.125ZM144.333 301.125H148.088V304.132H144.333V301.125ZM151.837 301.125H155.591V304.132H151.837V301.125ZM159.34 301.125H163.095V304.132H159.34V301.125ZM166.844 301.125H170.599V304.132H166.844V301.125ZM174.348 301.125H178.102V304.132H174.348V301.125ZM181.852 301.125H185.606V304.132H181.852V301.125ZM189.355 301.125H193.11V304.132H189.355V301.125ZM196.859 301.125H200.614V304.132H196.859V301.125ZM204.363 301.125H208.117V304.132H204.363V301.125ZM211.867 301.125H215.621V304.132H211.867V301.125ZM219.37 301.125H223.125V304.132H219.37V301.125ZM226.874 301.125H230.629V304.132H226.874V301.125ZM234.378 301.125H238.132V304.132H234.378V301.125ZM241.882 301.125H245.636V304.132H241.882V301.125ZM249.385 301.125H253.14V304.132H249.385V301.125ZM256.889 301.125H260.644V304.132H256.889V301.125ZM264.393 301.125H268.147V304.132H264.393V301.125ZM271.897 301.125H275.651V304.132H271.897V301.125ZM279.4 301.125H283.155V304.132H279.4V301.125ZM286.904 301.125H290.659V304.132H286.904V301.125ZM294.408 301.125H298.162V304.132H294.408V301.125ZM301.912 301.125H305.666V304.132H301.912V301.125ZM309.415 301.125H313.17V304.132H309.415V301.125ZM316.919 301.125H320.674V304.132H316.919V301.125ZM324.423 301.125H328.177V304.132H324.423V301.125ZM331.926 301.125H335.681V304.132H331.926V301.125ZM339.43 301.125H343.185V304.132H339.43V301.125ZM346.934 301.125H350.688V304.132H346.934V301.125ZM354.438 301.125H358.192V304.132H354.438V301.125ZM361.941 301.125H365.696V304.132H361.941V301.125ZM369.445 301.125H373.2V304.132H369.445V301.125ZM376.949 301.125H380.703V304.132H376.949V301.125ZM384.453 301.125H388.207V304.132H384.453V301.125ZM391.956 301.125H395.711V304.132H391.956V301.125ZM399.46 301.125H403.215V304.132H399.46V301.125ZM406.964 301.125H410.718V304.132H406.964V301.125ZM414.468 301.125H418.222V304.132H414.468V301.125ZM421.971 301.125H425.726V304.132H421.971V301.125ZM429.475 301.125H433.23V304.132H429.475V301.125ZM436.979 301.125H440.733V304.132H436.979V301.125ZM444.483 301.125H448.237V304.132H444.483V301.125ZM451.986 301.125H455.741V304.132H451.986V301.125ZM459.49 301.125H463.245V304.132H459.49V301.125ZM466.994 301.125H470.748V304.132H466.994V301.125ZM474.498 301.125H478.252V304.132H474.498V301.125ZM482.001 301.125H485.756V304.132H482.001V301.125ZM489.505 301.125H493.26V304.132H489.505V301.125ZM497.009 301.125H500.763V304.132H497.009V301.125ZM504.512 301.125H508.267V304.132H504.512V301.125ZM512.016 301.125H515.771V304.132H512.016V301.125ZM519.52 301.125H523.274V304.132H519.52V301.125ZM527.024 301.125H530.778V304.132H527.024V301.125ZM534.527 301.125H538.282V304.132H534.527V301.125ZM542.031 301.125H545.786V304.132H542.031V301.125ZM549.535 301.125H553.289V304.132H549.535V301.125ZM557.039 301.125H560.793V304.132H557.039V301.125ZM564.542 301.125H568.297V304.132H564.542V301.125ZM572.046 301.125H575.801V304.132H572.046V301.125ZM579.55 301.125H583.304V304.132H579.55V301.125ZM587.054 301.125H590.808V304.132H587.054V301.125ZM594.557 301.125H598.312V304.132H594.557V301.125ZM602.061 301.125H605.816V304.132H602.061V301.125ZM609.565 301.125H613.319V304.132H609.565V301.125ZM617.069 301.125H620.823V304.132H617.069V301.125ZM624.572 301.125H628.327V304.132H624.572V301.125ZM632.076 301.125H635.831V304.132H632.076V301.125ZM639.58 301.125H643.334V304.132H639.58V301.125ZM647.083 301.125H650.838V304.132H647.083V301.125ZM654.587 301.125H658.342V304.132H654.587V301.125ZM662.091 301.125H665.846V304.132H662.091V301.125ZM669.595 301.125H673.349V304.132H669.595V301.125ZM677.098 301.125H680.853V304.132H677.098V301.125ZM684.602 301.125H688.357V304.132H684.602V301.125ZM692.106 301.125H695.86V304.132H692.106V301.125ZM699.61 301.125H703.364V304.132H699.61V301.125ZM707.113 301.125H710.868V304.132H707.113V301.125ZM714.617 301.125H718.372V304.132H714.617V301.125ZM722.121 301.125H725.875V304.132H722.121V301.125ZM729.625 301.125H733.379V304.132H729.625V301.125ZM737.128 301.125H740.883V304.132H737.128V301.125ZM744.632 301.125H748.387V304.132H744.632V301.125ZM752.136 301.125H755.89V304.132H752.136V301.125ZM759.64 301.125H763.394V304.132H759.64V301.125ZM767.143 301.125H770.898V304.132H767.143V301.125Z" fill="#004B8B"/>
<path d="M16.9937 320.56C16.9937 310.359 25.2932 302.059 35.494 302.059H774.759C784.96 302.059 793.259 310.359 793.259 320.56C793.259 330.76 784.96 339.06 774.759 339.06H35.494C25.2932 339.06 16.9937 330.76 16.9937 320.56ZM35.494 305.072C26.9541 305.072 20.0058 312.02 20.0058 320.56C20.0058 329.099 26.9541 336.048 35.494 336.048H774.759C783.299 336.048 790.247 329.099 790.247 320.56C790.247 312.02 783.299 305.072 774.759 305.072H35.494Z" fill="#004B8B"/>
<path d="M767.117 314.445C763.923 318.124 764.318 323.7 768.003 326.894C771.683 330.088 777.259 329.687 780.452 326.007C783.646 322.328 783.251 316.752 779.566 313.558C775.886 310.364 770.31 310.76 767.117 314.445ZM769.798 316.768C771.71 314.567 775.037 314.327 777.243 316.239C779.443 318.146 779.683 321.478 777.771 323.684C775.859 325.89 772.532 326.125 770.326 324.213C768.126 322.301 767.886 318.974 769.798 316.768Z" fill="#004B8B"/>
<path d="M675.053 314.445C671.859 318.124 672.254 323.7 675.939 326.894C679.619 330.088 685.195 329.687 688.389 326.007C691.582 322.328 691.187 316.752 687.502 313.558C683.822 310.364 678.246 310.76 675.053 314.445ZM677.734 316.768C679.646 314.567 682.973 314.327 685.179 316.239C687.379 318.146 687.619 321.478 685.708 323.684C683.796 325.884 680.468 326.125 678.262 324.213C676.062 322.301 675.822 318.974 677.734 316.768Z" fill="#004B8B"/>
<path d="M582.989 314.445C579.795 318.124 580.191 323.7 583.876 326.894C587.556 330.088 593.131 329.687 596.325 326.007C599.519 322.328 599.124 316.752 595.439 313.558C591.759 310.364 586.183 310.76 582.989 314.445ZM585.67 316.768C587.582 314.567 590.91 314.327 593.115 316.239C595.316 318.146 595.556 321.478 593.644 323.684C591.732 325.884 588.405 326.125 586.199 324.213C583.999 322.301 583.758 318.974 585.67 316.768Z" fill="#004B8B"/>
<path d="M490.92 314.445C487.727 318.124 488.122 323.7 491.807 326.894C495.487 330.088 501.062 329.687 504.256 326.007C507.45 322.328 507.055 316.752 503.37 313.558C499.69 310.364 494.114 310.76 490.92 314.445ZM493.601 316.768C495.513 314.567 498.841 314.327 501.046 316.239C503.247 318.146 503.487 321.478 501.575 323.684C499.663 325.89 496.336 326.125 494.13 324.213C491.93 322.301 491.689 318.974 493.601 316.768Z" fill="#004B8B"/>
<path d="M398.856 314.445C395.663 318.124 396.058 323.7 399.743 326.894C403.423 330.088 408.998 329.687 412.192 326.007C415.386 322.328 414.991 316.752 411.306 313.558C407.626 310.364 402.05 310.76 398.856 314.445ZM401.537 316.768C403.449 314.567 406.777 314.327 408.982 316.239C411.183 318.146 411.423 321.478 409.511 323.684C407.599 325.89 404.272 326.125 402.066 324.213C399.866 322.301 399.625 318.974 401.537 316.768Z" fill="#004B8B"/>
<path d="M306.793 314.445C303.599 318.124 303.994 323.7 307.679 326.894C311.359 330.088 316.935 329.687 320.129 326.007C323.323 322.328 322.927 316.752 319.242 313.558C315.562 310.364 309.987 310.76 306.793 314.445ZM309.474 316.768C311.386 314.567 314.713 314.327 316.919 316.239C319.119 318.146 319.36 321.478 317.448 323.684C315.536 325.884 312.208 326.125 310.003 324.213C307.802 322.301 307.562 318.974 309.474 316.768Z" fill="#004B8B"/>
<path d="M214.729 314.445C211.536 318.124 211.931 323.7 215.616 326.894C219.296 330.088 224.872 329.687 228.065 326.007C231.259 322.328 230.864 316.752 227.179 313.558C223.499 310.364 217.923 310.76 214.729 314.445ZM217.411 316.768C219.322 314.567 222.65 314.327 224.855 316.239C227.056 318.146 227.296 321.478 225.384 323.684C223.472 325.89 220.145 326.125 217.939 324.213C215.739 322.301 215.499 318.974 217.411 316.768Z" fill="#004B8B"/>
<path d="M122.665 314.445C119.472 318.124 119.867 323.7 123.552 326.894C127.232 330.088 132.808 329.687 136.001 326.007C139.195 322.328 138.8 316.752 135.115 313.558C131.435 310.364 125.859 310.76 122.665 314.445ZM125.347 316.768C127.259 314.567 130.586 314.327 132.792 316.239C134.992 318.146 135.232 321.478 133.32 323.684C131.408 325.89 128.081 326.125 125.875 324.213C123.675 322.301 123.435 318.974 125.347 316.768Z" fill="#004B8B"/>
<path d="M30.5966 314.445C27.4029 318.124 27.7981 323.7 31.4832 326.894C35.163 330.088 40.7387 329.687 43.9325 326.007C47.1262 322.328 46.731 316.752 43.0459 313.558C39.3661 310.364 33.7904 310.76 30.5966 314.445ZM33.2777 316.768C35.1897 314.567 38.517 314.327 40.7227 316.239C42.9231 318.146 43.1634 321.478 41.2514 323.684C39.3394 325.884 36.0122 326.125 33.8064 324.213C31.606 322.301 31.3657 318.974 33.2777 316.768Z" fill="#004B8B"/>
<defs>
<clipPath id="clip0_18_570">
<rect width="20.3354" height="20" fill="white" transform="translate(175 265)"/>
</clipPath>
<clipPath id="clip1_18_570">
<rect width="20.3354" height="20" fill="white" transform="translate(315.103 265)"/>
</clipPath>
<clipPath id="clip2_18_570">
<rect width="20.3354" height="20" fill="white" transform="translate(455.103 265)"/>
</clipPath>
<clipPath id="clip3_18_570">
<rect width="20.3354" height="20" fill="white" transform="translate(595.103 265)"/>
</clipPath>
<clipPath id="clip4_18_570">
<rect width="20.3354" height="20" fill="white" transform="translate(735.103 265)"/>
</clipPath>
<clipPath id="clip5_18_570">
<rect width="20.3354" height="20" fill="white" transform="translate(875.103 265)"/>
</clipPath>
</defs>
</svg>
