<svg width="281" height="400" viewBox="0 0 281 400" fill="none" xmlns="http://www.w3.org/2000/svg">
<g clip-path="url(#clip0_15_478)">
<path d="M280.959 0H0V400H280.959V0Z" fill="white"/>
<path d="M0.0202026 288C127.321 282.161 217.604 319.754 280.979 350.195V490H0.0202026V288Z" fill="#EBF2E1"/>
<path fill-rule="evenodd" clip-rule="evenodd" d="M244.592 351.28H260.889L253.656 335.789L244.592 351.28Z" fill="#789658"/>
<path d="M261.723 322.075L204.807 321.563L187.106 350.796L244.592 351.28L261.723 322.075Z" fill="#5C7A3D"/>
<path d="M261.723 322.075L204.807 321.563L244.592 351.28L261.723 322.075Z" fill="#608040"/>
<path d="M241.632 322.475L225.61 350.285" stroke="#3D5931" stroke-width="0.74" stroke-linecap="round" stroke-linejoin="round"/>
<path d="M221.459 322.438L205.427 350.248" stroke="#3D5931" stroke-width="0.74" stroke-linecap="round" stroke-linejoin="round"/>
<path d="M253.107 335.901L196.811 335.408" stroke="#3D5931" stroke-width="0.74" stroke-linecap="round" stroke-linejoin="round"/>
<path fill-rule="evenodd" clip-rule="evenodd" d="M157.819 351.28H174.116L166.883 335.789L157.819 351.28Z" fill="#789658"/>
<path d="M174.95 322.075L118.034 321.563L100.333 350.796L157.819 351.28L174.95 322.075Z" fill="#577339"/>
<path d="M174.95 322.075L118.034 321.563L157.819 351.28L174.95 322.075Z" fill="#608040"/>
<path d="M154.859 322.475L138.837 350.285" stroke="#3D5931" stroke-width="0.74" stroke-linecap="round" stroke-linejoin="round"/>
<path d="M134.687 322.438L118.665 350.248" stroke="#3D5931" stroke-width="0.74" stroke-linecap="round" stroke-linejoin="round"/>
<path d="M166.344 335.901L110.038 335.408" stroke="#3D5931" stroke-width="0.74" stroke-linecap="round" stroke-linejoin="round"/>
<path fill-rule="evenodd" clip-rule="evenodd" d="M71.0459 351.28H87.3425L80.1098 335.789L71.0459 351.28Z" fill="#789658"/>
<path d="M88.1767 322.075L31.2605 321.563L13.5601 350.796L71.0459 351.28L88.1767 322.075Z" fill="#5C7A3D"/>
<path d="M88.1767 322.075L31.2605 321.563L71.0459 351.28L88.1767 322.075Z" fill="#608040"/>
<path d="M68.0857 322.475L52.0637 350.285" stroke="#3D5931" stroke-width="0.74" stroke-linecap="round" stroke-linejoin="round"/>
<path d="M47.9131 322.438L31.8911 350.248" stroke="#3D5931" stroke-width="0.74" stroke-linecap="round" stroke-linejoin="round"/>
<path d="M79.5707 335.901L23.2649 335.408" stroke="#3D5931" stroke-width="0.74" stroke-linecap="round" stroke-linejoin="round"/>
<path fill-rule="evenodd" clip-rule="evenodd" d="M244.592 401.08H260.889L253.656 385.58L244.592 401.08Z" fill="#789658"/>
<path d="M261.723 371.866L204.807 371.354L187.106 400.587L244.592 401.08L261.723 371.866Z" fill="#5C7A3D"/>
<path d="M261.723 371.866L204.807 371.354L244.592 401.08L261.723 371.866Z" fill="#608040"/>
<path d="M241.632 372.265L225.61 400.076" stroke="#3D5931" stroke-width="0.74" stroke-linecap="round" stroke-linejoin="round"/>
<path d="M221.459 372.238L205.427 400.039" stroke="#3D5931" stroke-width="0.74" stroke-linecap="round" stroke-linejoin="round"/>
<path d="M253.107 385.692L196.811 385.199" stroke="#3D5931" stroke-width="0.74" stroke-linecap="round" stroke-linejoin="round"/>
<path fill-rule="evenodd" clip-rule="evenodd" d="M157.819 401.08H174.116L166.883 385.58L157.819 401.08Z" fill="#789658"/>
<path d="M174.95 371.866L118.034 371.354L100.333 400.587L157.819 401.08L174.95 371.866Z" fill="#577339"/>
<path d="M174.95 371.866L118.034 371.354L157.819 401.08L174.95 371.866Z" fill="#608040"/>
<path d="M154.859 372.265L138.837 400.076" stroke="#3D5931" stroke-width="0.74" stroke-linecap="round" stroke-linejoin="round"/>
<path d="M134.687 372.238L118.665 400.039" stroke="#3D5931" stroke-width="0.74" stroke-linecap="round" stroke-linejoin="round"/>
<path d="M166.344 385.692L110.038 385.199" stroke="#3D5931" stroke-width="0.74" stroke-linecap="round" stroke-linejoin="round"/>
<path fill-rule="evenodd" clip-rule="evenodd" d="M71.0459 401.08H87.3425L80.1098 385.58L71.0459 401.08Z" fill="#789658"/>
<path d="M88.1767 371.866L31.2605 371.354L13.5601 400.587L71.0459 401.08L88.1767 371.866Z" fill="#5C7A3D"/>
<path d="M88.1767 371.866L31.2605 371.354L71.0459 401.08L88.1767 371.866Z" fill="#608040"/>
<path d="M68.0857 372.265L52.0637 400.076" stroke="#3D5931" stroke-width="0.74" stroke-linecap="round" stroke-linejoin="round"/>
<path d="M47.9131 372.238L31.8911 400.039" stroke="#3D5931" stroke-width="0.74" stroke-linecap="round" stroke-linejoin="round"/>
<path d="M79.5707 385.692L23.2649 385.199" stroke="#3D5931" stroke-width="0.74" stroke-linecap="round" stroke-linejoin="round"/>
<path d="M41.3759 131.219C26.1416 130.543 21.9084 137.315 21.9084 137.315C21.9084 137.315 15.1368 117.68 -4.1598 117V143.577H59.3196C59.3196 143.577 57.4576 131.935 41.3759 131.219Z" fill="#EBF2E1"/>
<path d="M235.784 61.2194C251.018 60.543 255.251 67.3146 255.251 67.3146C255.251 67.3146 262.023 47.6798 281.32 46.9998V73.5771H217.84C217.84 73.5771 219.702 61.935 235.784 61.2194Z" fill="#EBF2E1"/>
<path d="M95.4492 67.9977C95.4492 61.2019 92.8028 54.8075 87.9953 50.0047C83.1879 45.1972 76.7981 42.5508 70.0023 42.5508C63.2065 42.5508 56.8121 45.1972 52.0093 50.0047C47.2019 54.8122 44.5554 61.2019 44.5554 67.9977C44.5554 74.7935 47.2019 81.1879 52.0093 85.9907C56.9708 90.9522 63.4866 93.4306 70.007 93.4306C76.5274 93.4306 83.0385 90.9522 88 85.9907C92.8075 81.1832 95.4539 74.7935 95.4539 67.9977H95.4492ZM56.4061 81.5893C52.7748 77.958 50.7771 73.1319 50.7771 67.9977C50.7771 62.8635 52.7795 58.0327 56.4107 54.4014C60.042 50.7702 64.8681 48.7725 70.0023 48.7725C75.1365 48.7725 79.9627 50.7702 83.5939 54.4014C87.2252 58.0327 89.2275 62.8588 89.2275 67.9977C89.2275 73.1365 87.2299 77.958 83.5986 81.5893C76.1027 89.0852 63.9066 89.0852 56.4061 81.5893Z" fill="#00ADD8"/>
<path d="M46.6838 44.6792C47.8974 43.4657 47.8974 41.496 46.6838 40.2778L39.0432 32.6372C37.8297 31.4237 35.8554 31.4237 34.6418 32.6372C33.4283 33.8507 33.4283 35.8204 34.6418 37.0386L42.2824 44.6792C42.8892 45.286 43.6873 45.5894 44.4808 45.5894C45.2743 45.5894 46.0724 45.286 46.6792 44.6792H46.6838Z" fill="#00ADD8"/>
<path d="M97.7176 91.3162C96.504 90.1026 94.5344 90.1026 93.3162 91.3162C92.1026 92.5297 92.1026 94.4994 93.3162 95.7176L100.957 103.358C101.564 103.965 102.362 104.268 103.155 104.268C103.949 104.268 104.747 103.965 105.353 103.358C106.567 102.145 106.567 100.175 105.353 98.9568L97.7129 91.3162H97.7176Z" fill="#00ADD8"/>
<path d="M23.1132 71.1109H33.9137C35.6313 71.1109 37.0268 69.7153 37.0268 67.9977C37.0268 66.2801 35.6313 64.8845 33.9137 64.8845H23.1132C21.3956 64.8845 20 66.2801 20 67.9977C20 69.7153 21.3909 71.1109 23.1132 71.1109Z" fill="#00ADD8"/>
<path d="M120.005 67.9977C120.005 66.2801 118.609 64.8892 116.891 64.8892H106.086C104.369 64.8892 102.973 66.2847 102.973 68.0023C102.973 69.72 104.364 71.1109 106.086 71.1109H116.891C118.609 71.1109 120.005 69.7153 120 67.9977H120.005Z" fill="#00ADD8"/>
<path d="M34.6465 103.353C35.2533 103.96 36.0514 104.264 36.8449 104.264C37.6383 104.264 38.4365 103.96 39.0432 103.353L46.6838 95.7176C47.8974 94.504 47.8974 92.5344 46.6838 91.3162C45.4703 90.1026 43.5007 90.1026 42.2824 91.3162L34.6418 98.9521C33.4283 100.166 33.4283 102.135 34.6418 103.353H34.6465Z" fill="#00ADD8"/>
<path d="M97.7176 44.6838L105.358 37.0432C106.572 35.8297 106.572 33.86 105.358 32.6418C104.145 31.4283 102.175 31.4283 100.957 32.6418L93.3162 40.2824C92.1026 41.496 92.1026 43.4656 93.3162 44.6838C93.9229 45.2906 94.7211 45.594 95.5145 45.594C96.308 45.594 97.1061 45.2906 97.7129 44.6838H97.7176Z" fill="#00ADD8"/>
<path d="M66.8892 104.086V114.887C66.8892 116.604 68.2847 118 70.0023 118C71.72 118 73.1155 116.604 73.1155 114.887V104.086C73.1155 102.369 71.7246 100.973 70.0023 100.973C68.2801 100.973 66.8892 102.369 66.8892 104.086Z" fill="#00ADD8"/>
<path d="M70.0024 18C71.72 18 73.1109 19.3956 73.1109 21.1132V31.9183C73.1109 33.6359 71.7153 35.0315 69.9977 35.0315C68.2801 35.0315 66.8845 33.6359 66.8845 31.9183V21.1132C66.8892 19.3956 68.2848 18 70.0024 18Z" fill="#00ADD8"/>
</g>
<defs>
<clipPath id="clip0_15_478">
<rect width="281" height="400" fill="white"/>
</clipPath>
</defs>
</svg>
